<mxfile host="app.diagrams.net" modified="2023-04-07T08:57:57.097Z" agent="Mozilla/5.0 (Windows NT 10.0; Win64; x64) AppleWebKit/537.36 (KHTML, like Gecko) Chrome/111.0.0.0 Safari/537.36" etag="ai0tt1LvtUz8JNtW6c8Y" version="21.1.5" type="github">
  <diagram name="第 1 页" id="vJ0rgxZhLJOIbkDnHMc-">
    <mxGraphModel dx="2261" dy="1933" grid="1" gridSize="10" guides="1" tooltips="1" connect="1" arrows="1" fold="1" page="1" pageScale="1" pageWidth="827" pageHeight="1169" math="0" shadow="0">
      <root>
        <mxCell id="0" />
        <mxCell id="1" parent="0" />
        <UserObject label="" plantUmlData="{&#xa;  &quot;data&quot;: &quot;@startuml\ntitle 文件上传OSS流程图\n\nstart\n:选择文件;\nif (文件是否符合要求?) then (是)\n  :创建上传任务;\n  if (上传任务队列已满?) then (是)\n    :等待上传任务队列空闲;\n  endif\n  :上传任务添加到上传队列;\n  if (上传队列是否为空?) then (是)\n    :开始上传任务;\n    :监测上传情况;\n    if (上传成功?) then (是)\n      :结束;\n    else (否)\n      if (上传超时?) then (是)\n        :重新上传任务;\n        :添加到上传队列;\n        :开始上传任务;\n        :监测上传情况;\n        if (上传成功?) then (是)\n          :结束;\n        else (否)\n          :重试超时;\n          :结束;\n        endif\n      else (否)\n        :等待;\n        :监测上传情况;\n        if (上传成功?) then (是)\n          :结束;\n        else (否)\n          :重新监测上传情况;\n          :超时重试;\n          if (重试次数超过阈值?) then (是)\n            :重新创建上传任务;\n            :添加到上传队列;\n            if (上传任务队列已满?) then (是)\n              :等待上传任务队列空闲;\n            endif\n            :开始上传任务;\n            :监测上传情况;\n            if (上传成功?) then (是)\n              :结束;\n            else (否)\n              :重试超时;\n              :结束;\n            endif\n          endif\n        endif\n      endif\n    endif\n  else (否)\n    :等待;\n    :监测上传队列;\n    if (上传队列非空?) then (是)\n      :开始上传任务;\n      :监测上传情况;\n      if (上传成功?) then (是)\n        :结束;\n      else (否)\n        if (上传超时?) then (是)\n          :重新上传任务;\n          :添加到上传队列;\n          :开始上传任务;\n          :监测上传情况;\n          if (上传成功?) then (是)\n            :结束;\n          else (否)\n            :重试超时;\n            :结束;\n          endif\n        else (否)\n          :等待;\n          :监测上传情况;\n          if (上传成功?) then (是)\n            :结束;\n          else (否)\n            :重新监测上传情况;\n            :超时重试;\n            if (重试次数超过阈值?) then (是)\n              :重新创建上传任务;\n              :添加到上传队列;\n              if (上传任务队列已满?) then (是)\n                :等待上传任务队列空闲;\n              endif\n              :开始上传任务;\n              :监测上传情况;\n              if (上传成功?) then (是)\n                :结束;\n              else (否)\n                :重试超时;\n                :结束;\n              endif\n            endif\n          endif\n        endif\n      endif\n    endif\n  endif\nelse (否)\n  :选择其他文件;\n  -&gt;if;\nendif\n@enduml\n&quot;,&#xa;  &quot;format&quot;: &quot;svg&quot;&#xa;}" id="SEOhpYOwMnOXIxtxAOO3-1">
          <mxCell style="shape=image;noLabel=1;verticalAlign=top;aspect=fixed;imageAspect=0;image=data:image/svg+xml,PD94bWwgdmVyc2lvbj0iMS4wIiBlbmNvZGluZz0idXMtYXNjaWkiIHN0YW5kYWxvbmU9Im5vIj8+PHN2ZyB4bWxucz0iaHR0cDovL3d3dy53My5vcmcvMjAwMC9zdmciIHhtbG5zOnhsaW5rPSJodHRwOi8vd3d3LnczLm9yZy8xOTk5L3hsaW5rIiBjb250ZW50U3R5bGVUeXBlPSJ0ZXh0L2NzcyIgaGVpZ2h0PSIyMDEzcHgiIHByZXNlcnZlQXNwZWN0UmF0aW89Im5vbmUiIHN0eWxlPSJ3aWR0aDoxMTU2cHg7aGVpZ2h0OjIwMTNweDtiYWNrZ3JvdW5kOiNGRkZGRkY7IiB2ZXJzaW9uPSIxLjEiIHZpZXdCb3g9IjAgMCAxMTU2IDIwMTMiIHdpZHRoPSIxMTU2cHgiIHpvb21BbmRQYW49Im1hZ25pZnkiPjxkZWZzLz48Zz48dGV4dCBmaWxsPSIjMDAwMDAwIiBmb250LWZhbWlseT0ic2Fucy1zZXJpZiIgZm9udC1zaXplPSIxNCIgZm9udC13ZWlnaHQ9ImJvbGQiIGxlbmd0aEFkanVzdD0ic3BhY2luZyIgdGV4dExlbmd0aD0iMTE5IiB4PSI1MTciIHk9IjMzLjIzNDQiPiYjMjU5OTE7JiMyMDIxNDsmIzE5OTc4OyYjMjAyNTY7T1NTJiMyNzk2OTsmIzMxMjQzOyYjMjIyNzA7PC90ZXh0PjxlbGxpcHNlIGN4PSI3NDYuODc1IiBjeT0iNTUuOTg0NCIgZmlsbD0iIzIyMjIyMiIgcng9IjEwIiByeT0iMTAiIHN0eWxlPSJzdHJva2U6IzIyMjIyMjtzdHJva2Utd2lkdGg6MS4wOyIvPjxyZWN0IGZpbGw9IiNGMUYxRjEiIGhlaWdodD0iMzIuODQzOCIgcng9IjEyLjUiIHJ5PSIxMi41IiBzdHlsZT0ic3Ryb2tlOiMxODE4MTg7c3Ryb2tlLXdpZHRoOjAuNTsiIHdpZHRoPSI2OCIgeD0iNzEyLjg3NSIgeT0iODUuOTg0NCIvPjx0ZXh0IGZpbGw9IiMwMDAwMDAiIGZvbnQtZmFtaWx5PSJzYW5zLXNlcmlmIiBmb250LXNpemU9IjEyIiBsZW5ndGhBZGp1c3Q9InNwYWNpbmciIHRleHRMZW5ndGg9IjQ4IiB4PSI3MjIuODc1IiB5PSIxMDcuMzI4MSI+JiMzNjg3MzsmIzI1MzIxOyYjMjU5OTE7JiMyMDIxNDs8L3RleHQ+PHBvbHlnb24gZmlsbD0iI0YxRjFGMSIgcG9pbnRzPSI2OTkuODc1LDEzOC44MjgxLDc5My44NzUsMTM4LjgyODEsODA1Ljg3NSwxNTAuODI4MSw3OTMuODc1LDE2Mi44MjgxLDY5OS44NzUsMTYyLjgyODEsNjg3Ljg3NSwxNTAuODI4MSw2OTkuODc1LDEzOC44MjgxIiBzdHlsZT0ic3Ryb2tlOiMxODE4MTg7c3Ryb2tlLXdpZHRoOjAuNTsiLz48dGV4dCBmaWxsPSIjMDAwMDAwIiBmb250LWZhbWlseT0ic2Fucy1zZXJpZiIgZm9udC1zaXplPSIxMSIgbGVuZ3RoQWRqdXN0PSJzcGFjaW5nIiB0ZXh0TGVuZ3RoPSI5NCIgeD0iNjk5Ljg3NSIgeT0iMTU1LjMzOTgiPiYjMjU5OTE7JiMyMDIxNDsmIzI2MTU5OyYjMjE1NDI7JiMzMTUyNjsmIzIxNTEyOyYjMzUyMDE7JiMyNzcxNDs/PC90ZXh0Pjx0ZXh0IGZpbGw9IiMwMDAwMDAiIGZvbnQtZmFtaWx5PSJzYW5zLXNlcmlmIiBmb250LXNpemU9IjExIiBsZW5ndGhBZGp1c3Q9InNwYWNpbmciIHRleHRMZW5ndGg9IjExIiB4PSI2NzYuODc1IiB5PSIxNDkuNDUzMSI+JiMyNjE1OTs8L3RleHQ+PHRleHQgZmlsbD0iIzAwMDAwMCIgZm9udC1mYW1pbHk9InNhbnMtc2VyaWYiIGZvbnQtc2l6ZT0iMTEiIGxlbmd0aEFkanVzdD0ic3BhY2luZyIgdGV4dExlbmd0aD0iMTEiIHg9IjgwNS44NzUiIHk9IjE0OS40NTMxIj4mIzIxNTQyOzwvdGV4dD48cmVjdCBmaWxsPSIjRjFGMUYxIiBoZWlnaHQ9IjMyLjg0MzgiIHJ4PSIxMi41IiByeT0iMTIuNSIgc3R5bGU9InN0cm9rZTojMTgxODE4O3N0cm9rZS13aWR0aDowLjU7IiB3aWR0aD0iOTIiIHg9IjM4MC43NSIgeT0iMTcyLjgyODEiLz48dGV4dCBmaWxsPSIjMDAwMDAwIiBmb250LWZhbWlseT0ic2Fucy1zZXJpZiIgZm9udC1zaXplPSIxMiIgbGVuZ3RoQWRqdXN0PSJzcGFjaW5nIiB0ZXh0TGVuZ3RoPSI3MiIgeD0iMzkwLjc1IiB5PSIxOTQuMTcxOSI+JiMyMTAxOTsmIzI0MzE0OyYjMTk5Nzg7JiMyMDI1NjsmIzIwMjE5OyYjMjExNTM7PC90ZXh0PjxyZWN0IGZpbGw9IiNGMUYxRjEiIGhlaWdodD0iMzIuODQzOCIgcng9IjEyLjUiIHJ5PSIxMi41IiBzdHlsZT0ic3Ryb2tlOiMxODE4MTg7c3Ryb2tlLXdpZHRoOjAuNTsiIHdpZHRoPSIxNDAiIHg9IjM1Ni43NSIgeT0iMjczLjY3MTkiLz48dGV4dCBmaWxsPSIjMDAwMDAwIiBmb250LWZhbWlseT0ic2Fucy1zZXJpZiIgZm9udC1zaXplPSIxMiIgbGVuZ3RoQWRqdXN0PSJzcGFjaW5nIiB0ZXh0TGVuZ3RoPSIxMjAiIHg9IjM2Ni43NSIgeT0iMjk1LjAxNTYiPiYjMzE1NjE7JiMyNDQ1MzsmIzE5OTc4OyYjMjAyNTY7JiMyMDIxOTsmIzIxMTUzOyYjMzg0MzE7JiMyMTAxNTsmIzMxMzU0OyYjMzgzODY7PC90ZXh0Pjxwb2x5Z29uIGZpbGw9IiNGMUYxRjEiIHBvaW50cz0iMzc5Ljc1LDIyNS42NzE5LDQ3My43NSwyMjUuNjcxOSw0ODUuNzUsMjM3LjY3MTksNDczLjc1LDI0OS42NzE5LDM3OS43NSwyNDkuNjcxOSwzNjcuNzUsMjM3LjY3MTksMzc5Ljc1LDIyNS42NzE5IiBzdHlsZT0ic3Ryb2tlOiMxODE4MTg7c3Ryb2tlLXdpZHRoOjAuNTsiLz48dGV4dCBmaWxsPSIjMDAwMDAwIiBmb250LWZhbWlseT0ic2Fucy1zZXJpZiIgZm9udC1zaXplPSIxMSIgbGVuZ3RoQWRqdXN0PSJzcGFjaW5nIiB0ZXh0TGVuZ3RoPSIxMSIgeD0iNDMwLjc1IiB5PSIyNjAuMDcwMyI+JiMyNjE1OTs8L3RleHQ+PHRleHQgZmlsbD0iIzAwMDAwMCIgZm9udC1mYW1pbHk9InNhbnMtc2VyaWYiIGZvbnQtc2l6ZT0iMTEiIGxlbmd0aEFkanVzdD0ic3BhY2luZyIgdGV4dExlbmd0aD0iOTQiIHg9IjM3OS43NSIgeT0iMjQyLjE4MzYiPiYjMTk5Nzg7JiMyMDI1NjsmIzIwMjE5OyYjMjExNTM7JiMzODQzMTsmIzIxMDE1OyYjMjQwNTA7JiMyODM4NTs/PC90ZXh0Pjxwb2x5Z29uIGZpbGw9IiNGMUYxRjEiIHBvaW50cz0iNDI2Ljc1LDMyNi41MTU2LDQzOC43NSwzMzguNTE1Niw0MjYuNzUsMzUwLjUxNTYsNDE0Ljc1LDMzOC41MTU2LDQyNi43NSwzMjYuNTE1NiIgc3R5bGU9InN0cm9rZTojMTgxODE4O3N0cm9rZS13aWR0aDowLjU7Ii8+PHJlY3QgZmlsbD0iI0YxRjFGMSIgaGVpZ2h0PSIzMi44NDM4IiByeD0iMTIuNSIgcnk9IjEyLjUiIHN0eWxlPSJzdHJva2U6IzE4MTgxODtzdHJva2Utd2lkdGg6MC41OyIgd2lkdGg9IjE1MiIgeD0iMzUwLjc1IiB5PSIzNzAuNTE1NiIvPjx0ZXh0IGZpbGw9IiMwMDAwMDAiIGZvbnQtZmFtaWx5PSJzYW5zLXNlcmlmIiBmb250LXNpemU9IjEyIiBsZW5ndGhBZGp1c3Q9InNwYWNpbmciIHRleHRMZW5ndGg9IjEzMiIgeD0iMzYwLjc1IiB5PSIzOTEuODU5NCI+JiMxOTk3ODsmIzIwMjU2OyYjMjAyMTk7JiMyMTE1MzsmIzI4MTU1OyYjMjExNTI7JiMyMTA0MDsmIzE5OTc4OyYjMjAyNTY7JiMzODQzMTsmIzIxMDE1OzwvdGV4dD48cG9seWdvbiBmaWxsPSIjRjFGMUYxIiBwb2ludHM9IjM3OS43NSw0MjMuMzU5NCw0NzMuNzUsNDIzLjM1OTQsNDg1Ljc1LDQzNS4zNTk0LDQ3My43NSw0NDcuMzU5NCwzNzkuNzUsNDQ3LjM1OTQsMzY3Ljc1LDQzNS4zNTk0LDM3OS43NSw0MjMuMzU5NCIgc3R5bGU9InN0cm9rZTojMTgxODE4O3N0cm9rZS13aWR0aDowLjU7Ii8+PHRleHQgZmlsbD0iIzAwMDAwMCIgZm9udC1mYW1pbHk9InNhbnMtc2VyaWYiIGZvbnQtc2l6ZT0iMTEiIGxlbmd0aEFkanVzdD0ic3BhY2luZyIgdGV4dExlbmd0aD0iOTQiIHg9IjM3OS43NSIgeT0iNDM5Ljg3MTEiPiYjMTk5Nzg7JiMyMDI1NjsmIzM4NDMxOyYjMjEwMTU7JiMyNjE1OTsmIzIxNTQyOyYjMjAwMjY7JiMzMTM1NDs/PC90ZXh0Pjx0ZXh0IGZpbGw9IiMwMDAwMDAiIGZvbnQtZmFtaWx5PSJzYW5zLXNlcmlmIiBmb250LXNpemU9IjExIiBsZW5ndGhBZGp1c3Q9InNwYWNpbmciIHRleHRMZW5ndGg9IjExIiB4PSIzNTYuNzUiIHk9IjQzMy45ODQ0Ij4mIzI2MTU5OzwvdGV4dD48dGV4dCBmaWxsPSIjMDAwMDAwIiBmb250LWZhbWlseT0ic2Fucy1zZXJpZiIgZm9udC1zaXplPSIxMSIgbGVuZ3RoQWRqdXN0PSJzcGFjaW5nIiB0ZXh0TGVuZ3RoPSIxMSIgeD0iNDg1Ljc1IiB5PSI0MzMuOTg0NCI+JiMyMTU0Mjs8L3RleHQ+PHJlY3QgZmlsbD0iI0YxRjFGMSIgaGVpZ2h0PSIzMi44NDM4IiByeD0iMTIuNSIgcnk9IjEyLjUiIHN0eWxlPSJzdHJva2U6IzE4MTgxODtzdHJva2Utd2lkdGg6MC41OyIgd2lkdGg9IjkyIiB4PSI3NC43NSIgeT0iNDU3LjM1OTQiLz48dGV4dCBmaWxsPSIjMDAwMDAwIiBmb250LWZhbWlseT0ic2Fucy1zZXJpZiIgZm9udC1zaXplPSIxMiIgbGVuZ3RoQWRqdXN0PSJzcGFjaW5nIiB0ZXh0TGVuZ3RoPSI3MiIgeD0iODQuNzUiIHk9IjQ3OC43MDMxIj4mIzI0MzIwOyYjMjI5ODc7JiMxOTk3ODsmIzIwMjU2OyYjMjAyMTk7JiMyMTE1Mzs8L3RleHQ+PHJlY3QgZmlsbD0iI0YxRjFGMSIgaGVpZ2h0PSIzMi44NDM4IiByeD0iMTIuNSIgcnk9IjEyLjUiIHN0eWxlPSJzdHJva2U6IzE4MTgxODtzdHJva2Utd2lkdGg6MC41OyIgd2lkdGg9IjkyIiB4PSI3NC43NSIgeT0iNTEwLjIwMzEiLz48dGV4dCBmaWxsPSIjMDAwMDAwIiBmb250LWZhbWlseT0ic2Fucy1zZXJpZiIgZm9udC1zaXplPSIxMiIgbGVuZ3RoQWRqdXN0PSJzcGFjaW5nIiB0ZXh0TGVuZ3RoPSI3MiIgeD0iODQuNzUiIHk9IjUzMS41NDY5Ij4mIzMwNDE3OyYjMjc5Nzk7JiMxOTk3ODsmIzIwMjU2OyYjMjQ3NzM7JiMyMDkxNzs8L3RleHQ+PHBvbHlnb24gZmlsbD0iI0YxRjFGMSIgcG9pbnRzPSI5NS43NSw1NjMuMDQ2OSwxNDUuNzUsNTYzLjA0NjksMTU3Ljc1LDU3NS4wNDY5LDE0NS43NSw1ODcuMDQ2OSw5NS43NSw1ODcuMDQ2OSw4My43NSw1NzUuMDQ2OSw5NS43NSw1NjMuMDQ2OSIgc3R5bGU9InN0cm9rZTojMTgxODE4O3N0cm9rZS13aWR0aDowLjU7Ii8+PHRleHQgZmlsbD0iIzAwMDAwMCIgZm9udC1mYW1pbHk9InNhbnMtc2VyaWYiIGZvbnQtc2l6ZT0iMTEiIGxlbmd0aEFkanVzdD0ic3BhY2luZyIgdGV4dExlbmd0aD0iNTAiIHg9Ijk1Ljc1IiB5PSI1NzkuNTU4NiI+JiMxOTk3ODsmIzIwMjU2OyYjMjUxMDQ7JiMyMTE1MTs/PC90ZXh0Pjx0ZXh0IGZpbGw9IiMwMDAwMDAiIGZvbnQtZmFtaWx5PSJzYW5zLXNlcmlmIiBmb250LXNpemU9IjExIiBsZW5ndGhBZGp1c3Q9InNwYWNpbmciIHRleHRMZW5ndGg9IjExIiB4PSI3Mi43NSIgeT0iNTczLjY3MTkiPiYjMjYxNTk7PC90ZXh0Pjx0ZXh0IGZpbGw9IiMwMDAwMDAiIGZvbnQtZmFtaWx5PSJzYW5zLXNlcmlmIiBmb250LXNpemU9IjExIiBsZW5ndGhBZGp1c3Q9InNwYWNpbmciIHRleHRMZW5ndGg9IjExIiB4PSIxNTcuNzUiIHk9IjU3My42NzE5Ij4mIzIxNTQyOzwvdGV4dD48cmVjdCBmaWxsPSIjRjFGMUYxIiBoZWlnaHQ9IjMyLjg0MzgiIHJ4PSIxMi41IiByeT0iMTIuNSIgc3R5bGU9InN0cm9rZTojMTgxODE4O3N0cm9rZS13aWR0aDowLjU7IiB3aWR0aD0iNDQiIHg9IjExIiB5PSI1OTcuMDQ2OSIvPjx0ZXh0IGZpbGw9IiMwMDAwMDAiIGZvbnQtZmFtaWx5PSJzYW5zLXNlcmlmIiBmb250LXNpemU9IjEyIiBsZW5ndGhBZGp1c3Q9InNwYWNpbmciIHRleHRMZW5ndGg9IjI0IiB4PSIyMSIgeT0iNjE4LjM5MDYiPiYjMzI0Njc7JiMyNjQ2Mzs8L3RleHQ+PHBvbHlnb24gZmlsbD0iI0YxRjFGMSIgcG9pbnRzPSIyMTMuNSw1OTcuMDQ2OSwyNjMuNSw1OTcuMDQ2OSwyNzUuNSw2MDkuMDQ2OSwyNjMuNSw2MjEuMDQ2OSwyMTMuNSw2MjEuMDQ2OSwyMDEuNSw2MDkuMDQ2OSwyMTMuNSw1OTcuMDQ2OSIgc3R5bGU9InN0cm9rZTojMTgxODE4O3N0cm9rZS13aWR0aDowLjU7Ii8+PHRleHQgZmlsbD0iIzAwMDAwMCIgZm9udC1mYW1pbHk9InNhbnMtc2VyaWYiIGZvbnQtc2l6ZT0iMTEiIGxlbmd0aEFkanVzdD0ic3BhY2luZyIgdGV4dExlbmd0aD0iNTAiIHg9IjIxMy41IiB5PSI2MTMuNTU4NiI+JiMxOTk3ODsmIzIwMjU2OyYjMzYyMjk7JiMyNjEwMjs/PC90ZXh0Pjx0ZXh0IGZpbGw9IiMwMDAwMDAiIGZvbnQtZmFtaWx5PSJzYW5zLXNlcmlmIiBmb250LXNpemU9IjExIiBsZW5ndGhBZGp1c3Q9InNwYWNpbmciIHRleHRMZW5ndGg9IjExIiB4PSIxOTAuNSIgeT0iNjA3LjY3MTkiPiYjMjYxNTk7PC90ZXh0Pjx0ZXh0IGZpbGw9IiMwMDAwMDAiIGZvbnQtZmFtaWx5PSJzYW5zLXNlcmlmIiBmb250LXNpemU9IjExIiBsZW5ndGhBZGp1c3Q9InNwYWNpbmciIHRleHRMZW5ndGg9IjExIiB4PSIyNzUuNSIgeT0iNjA3LjY3MTkiPiYjMjE1NDI7PC90ZXh0PjxyZWN0IGZpbGw9IiNGMUYxRjEiIGhlaWdodD0iMzIuODQzOCIgcng9IjEyLjUiIHJ5PSIxMi41IiBzdHlsZT0ic3Ryb2tlOiMxODE4MTg7c3Ryb2tlLXdpZHRoOjAuNTsiIHdpZHRoPSI5MiIgeD0iODgiIHk9IjYzMS4wNDY5Ii8+PHRleHQgZmlsbD0iIzAwMDAwMCIgZm9udC1mYW1pbHk9InNhbnMtc2VyaWYiIGZvbnQtc2l6ZT0iMTIiIGxlbmd0aEFkanVzdD0ic3BhY2luZyIgdGV4dExlbmd0aD0iNzIiIHg9Ijk4IiB5PSI2NTIuMzkwNiI+JiMzNzMyNTsmIzI2MDMyOyYjMTk5Nzg7JiMyMDI1NjsmIzIwMjE5OyYjMjExNTM7PC90ZXh0PjxyZWN0IGZpbGw9IiNGMUYxRjEiIGhlaWdodD0iMzIuODQzOCIgcng9IjEyLjUiIHJ5PSIxMi41IiBzdHlsZT0ic3Ryb2tlOiMxODE4MTg7c3Ryb2tlLXdpZHRoOjAuNTsiIHdpZHRoPSIxMDQiIHg9IjgyIiB5PSI2OTguODkwNiIvPjx0ZXh0IGZpbGw9IiMwMDAwMDAiIGZvbnQtZmFtaWx5PSJzYW5zLXNlcmlmIiBmb250LXNpemU9IjEyIiBsZW5ndGhBZGp1c3Q9InNwYWNpbmciIHRleHRMZW5ndGg9Ijg0IiB4PSI5MiIgeT0iNzIwLjIzNDQiPiYjMjgxNTU7JiMyMTE1MjsmIzIxMDQwOyYjMTk5Nzg7JiMyMDI1NjsmIzM4NDMxOyYjMjEwMTU7PC90ZXh0PjxyZWN0IGZpbGw9IiNGMUYxRjEiIGhlaWdodD0iMzIuODQzOCIgcng9IjEyLjUiIHJ5PSIxMi41IiBzdHlsZT0ic3Ryb2tlOiMxODE4MTg7c3Ryb2tlLXdpZHRoOjAuNTsiIHdpZHRoPSI5MiIgeD0iODgiIHk9Ijc2Ni43MzQ0Ii8+PHRleHQgZmlsbD0iIzAwMDAwMCIgZm9udC1mYW1pbHk9InNhbnMtc2VyaWYiIGZvbnQtc2l6ZT0iMTIiIGxlbmd0aEFkanVzdD0ic3BhY2luZyIgdGV4dExlbmd0aD0iNzIiIHg9Ijk4IiB5PSI3ODguMDc4MSI+JiMyNDMyMDsmIzIyOTg3OyYjMTk5Nzg7JiMyMDI1NjsmIzIwMjE5OyYjMjExNTM7PC90ZXh0PjxyZWN0IGZpbGw9IiNGMUYxRjEiIGhlaWdodD0iMzIuODQzOCIgcng9IjEyLjUiIHJ5PSIxMi41IiBzdHlsZT0ic3Ryb2tlOiMxODE4MTg7c3Ryb2tlLXdpZHRoOjAuNTsiIHdpZHRoPSI5MiIgeD0iODgiIHk9IjgzNC41NzgxIi8+PHRleHQgZmlsbD0iIzAwMDAwMCIgZm9udC1mYW1pbHk9InNhbnMtc2VyaWYiIGZvbnQtc2l6ZT0iMTIiIGxlbmd0aEFkanVzdD0ic3BhY2luZyIgdGV4dExlbmd0aD0iNzIiIHg9Ijk4IiB5PSI4NTUuOTIxOSI+JiMzMDQxNzsmIzI3OTc5OyYjMTk5Nzg7JiMyMDI1NjsmIzI0NzczOyYjMjA5MTc7PC90ZXh0Pjxwb2x5Z29uIGZpbGw9IiNGMUYxRjEiIHBvaW50cz0iMTA5LDkwMi40MjE5LDE1OSw5MDIuNDIxOSwxNzEsOTE0LjQyMTksMTU5LDkyNi40MjE5LDEwOSw5MjYuNDIxOSw5Nyw5MTQuNDIxOSwxMDksOTAyLjQyMTkiIHN0eWxlPSJzdHJva2U6IzE4MTgxODtzdHJva2Utd2lkdGg6MC41OyIvPjx0ZXh0IGZpbGw9IiMwMDAwMDAiIGZvbnQtZmFtaWx5PSJzYW5zLXNlcmlmIiBmb250LXNpemU9IjExIiBsZW5ndGhBZGp1c3Q9InNwYWNpbmciIHRleHRMZW5ndGg9IjUwIiB4PSIxMDkiIHk9IjkxOC45MzM2Ij4mIzE5OTc4OyYjMjAyNTY7JiMyNTEwNDsmIzIxMTUxOz88L3RleHQ+PHRleHQgZmlsbD0iIzAwMDAwMCIgZm9udC1mYW1pbHk9InNhbnMtc2VyaWYiIGZvbnQtc2l6ZT0iMTEiIGxlbmd0aEFkanVzdD0ic3BhY2luZyIgdGV4dExlbmd0aD0iMTEiIHg9Ijg2IiB5PSI5MTMuMDQ2OSI+JiMyNjE1OTs8L3RleHQ+PHRleHQgZmlsbD0iIzAwMDAwMCIgZm9udC1mYW1pbHk9InNhbnMtc2VyaWYiIGZvbnQtc2l6ZT0iMTEiIGxlbmd0aEFkanVzdD0ic3BhY2luZyIgdGV4dExlbmd0aD0iMTEiIHg9IjE3MSIgeT0iOTEzLjA0NjkiPiYjMjE1NDI7PC90ZXh0PjxyZWN0IGZpbGw9IiNGMUYxRjEiIGhlaWdodD0iMzIuODQzOCIgcng9IjEyLjUiIHJ5PSIxMi41IiBzdHlsZT0ic3Ryb2tlOiMxODE4MTg7c3Ryb2tlLXdpZHRoOjAuNTsiIHdpZHRoPSI0NCIgeD0iNjUiIHk9IjkzNi40MjE5Ii8+PHRleHQgZmlsbD0iIzAwMDAwMCIgZm9udC1mYW1pbHk9InNhbnMtc2VyaWYiIGZvbnQtc2l6ZT0iMTIiIGxlbmd0aEFkanVzdD0ic3BhY2luZyIgdGV4dExlbmd0aD0iMjQiIHg9Ijc1IiB5PSI5NTcuNzY1NiI+JiMzMjQ2NzsmIzI2NDYzOzwvdGV4dD48cmVjdCBmaWxsPSIjRjFGMUYxIiBoZWlnaHQ9IjMyLjg0MzgiIHJ4PSIxMi41IiByeT0iMTIuNSIgc3R5bGU9InN0cm9rZTojMTgxODE4O3N0cm9rZS13aWR0aDowLjU7IiB3aWR0aD0iNjgiIHg9IjE0NyIgeT0iOTM2LjQyMTkiLz48dGV4dCBmaWxsPSIjMDAwMDAwIiBmb250LWZhbWlseT0ic2Fucy1zZXJpZiIgZm9udC1zaXplPSIxMiIgbGVuZ3RoQWRqdXN0PSJzcGFjaW5nIiB0ZXh0TGVuZ3RoPSI0OCIgeD0iMTU3IiB5PSI5NTcuNzY1NiI+JiMzNzMyNTsmIzM1Nzk3OyYjMzYyMjk7JiMyNjEwMjs8L3RleHQ+PHJlY3QgZmlsbD0iI0YxRjFGMSIgaGVpZ2h0PSIzMi44NDM4IiByeD0iMTIuNSIgcnk9IjEyLjUiIHN0eWxlPSJzdHJva2U6IzE4MTgxODtzdHJva2Utd2lkdGg6MC41OyIgd2lkdGg9IjQ0IiB4PSIxNTkiIHk9IjEwMDQuMjY1NiIvPjx0ZXh0IGZpbGw9IiMwMDAwMDAiIGZvbnQtZmFtaWx5PSJzYW5zLXNlcmlmIiBmb250LXNpemU9IjEyIiBsZW5ndGhBZGp1c3Q9InNwYWNpbmciIHRleHRMZW5ndGg9IjI0IiB4PSIxNjkiIHk9IjEwMjUuNjA5NCI+JiMzMjQ2NzsmIzI2NDYzOzwvdGV4dD48cG9seWdvbiBmaWxsPSIjRjFGMUYxIiBwb2ludHM9IjEzNCwxMDQzLjEwOTQsMTQ2LDEwNTUuMTA5NCwxMzQsMTA2Ny4xMDk0LDEyMiwxMDU1LjEwOTQsMTM0LDEwNDMuMTA5NCIgc3R5bGU9InN0cm9rZTojMTgxODE4O3N0cm9rZS13aWR0aDowLjU7Ii8+PHJlY3QgZmlsbD0iI0YxRjFGMSIgaGVpZ2h0PSIzMi44NDM4IiByeD0iMTIuNSIgcnk9IjEyLjUiIHN0eWxlPSJzdHJva2U6IzE4MTgxODtzdHJva2Utd2lkdGg6MC41OyIgd2lkdGg9IjQ0IiB4PSIzMjEiIHk9IjYzMS4wNDY5Ii8+PHRleHQgZmlsbD0iIzAwMDAwMCIgZm9udC1mYW1pbHk9InNhbnMtc2VyaWYiIGZvbnQtc2l6ZT0iMTIiIGxlbmd0aEFkanVzdD0ic3BhY2luZyIgdGV4dExlbmd0aD0iMjQiIHg9IjMzMSIgeT0iNjUyLjM5MDYiPiYjMzE1NjE7JiMyNDQ1Mzs8L3RleHQ+PHJlY3QgZmlsbD0iI0YxRjFGMSIgaGVpZ2h0PSIzMi44NDM4IiByeD0iMTIuNSIgcnk9IjEyLjUiIHN0eWxlPSJzdHJva2U6IzE4MTgxODtzdHJva2Utd2lkdGg6MC41OyIgd2lkdGg9IjkyIiB4PSIyOTciIHk9IjY5OC44OTA2Ii8+PHRleHQgZmlsbD0iIzAwMDAwMCIgZm9udC1mYW1pbHk9InNhbnMtc2VyaWYiIGZvbnQtc2l6ZT0iMTIiIGxlbmd0aEFkanVzdD0ic3BhY2luZyIgdGV4dExlbmd0aD0iNzIiIHg9IjMwNyIgeT0iNzIwLjIzNDQiPiYjMzA0MTc7JiMyNzk3OTsmIzE5OTc4OyYjMjAyNTY7JiMyNDc3MzsmIzIwOTE3OzwvdGV4dD48cG9seWdvbiBmaWxsPSIjRjFGMUYxIiBwb2ludHM9IjMxOCw3NjYuNzM0NCwzNjgsNzY2LjczNDQsMzgwLDc3OC43MzQ0LDM2OCw3OTAuNzM0NCwzMTgsNzkwLjczNDQsMzA2LDc3OC43MzQ0LDMxOCw3NjYuNzM0NCIgc3R5bGU9InN0cm9rZTojMTgxODE4O3N0cm9rZS13aWR0aDowLjU7Ii8+PHRleHQgZmlsbD0iIzAwMDAwMCIgZm9udC1mYW1pbHk9InNhbnMtc2VyaWYiIGZvbnQtc2l6ZT0iMTEiIGxlbmd0aEFkanVzdD0ic3BhY2luZyIgdGV4dExlbmd0aD0iNTAiIHg9IjMxOCIgeT0iNzgzLjI0NjEiPiYjMTk5Nzg7JiMyMDI1NjsmIzI1MTA0OyYjMjExNTE7PzwvdGV4dD48dGV4dCBmaWxsPSIjMDAwMDAwIiBmb250LWZhbWlseT0ic2Fucy1zZXJpZiIgZm9udC1zaXplPSIxMSIgbGVuZ3RoQWRqdXN0PSJzcGFjaW5nIiB0ZXh0TGVuZ3RoPSIxMSIgeD0iMjk1IiB5PSI3NzcuMzU5NCI+JiMyNjE1OTs8L3RleHQ+PHRleHQgZmlsbD0iIzAwMDAwMCIgZm9udC1mYW1pbHk9InNhbnMtc2VyaWYiIGZvbnQtc2l6ZT0iMTEiIGxlbmd0aEFkanVzdD0ic3BhY2luZyIgdGV4dExlbmd0aD0iMTEiIHg9IjM4MCIgeT0iNzc3LjM1OTQiPiYjMjE1NDI7PC90ZXh0PjxyZWN0IGZpbGw9IiNGMUYxRjEiIGhlaWdodD0iMzIuODQzOCIgcng9IjEyLjUiIHJ5PSIxMi41IiBzdHlsZT0ic3Ryb2tlOiMxODE4MTg7c3Ryb2tlLXdpZHRoOjAuNTsiIHdpZHRoPSI0NCIgeD0iMjU1IiB5PSI4MDAuNzM0NCIvPjx0ZXh0IGZpbGw9IiMwMDAwMDAiIGZvbnQtZmFtaWx5PSJzYW5zLXNlcmlmIiBmb250LXNpemU9IjEyIiBsZW5ndGhBZGp1c3Q9InNwYWNpbmciIHRleHRMZW5ndGg9IjI0IiB4PSIyNjUiIHk9IjgyMi4wNzgxIj4mIzMyNDY3OyYjMjY0NjM7PC90ZXh0PjxyZWN0IGZpbGw9IiNGMUYxRjEiIGhlaWdodD0iMzIuODQzOCIgcng9IjEyLjUiIHJ5PSIxMi41IiBzdHlsZT0ic3Ryb2tlOiMxODE4MTg7c3Ryb2tlLXdpZHRoOjAuNTsiIHdpZHRoPSIxMTYiIHg9IjM1MSIgeT0iODAwLjczNDQiLz48dGV4dCBmaWxsPSIjMDAwMDAwIiBmb250LWZhbWlseT0ic2Fucy1zZXJpZiIgZm9udC1zaXplPSIxMiIgbGVuZ3RoQWRqdXN0PSJzcGFjaW5nIiB0ZXh0TGVuZ3RoPSI5NiIgeD0iMzYxIiB5PSI4MjIuMDc4MSI+JiMzNzMyNTsmIzI2MDMyOyYjMzA0MTc7JiMyNzk3OTsmIzE5OTc4OyYjMjAyNTY7JiMyNDc3MzsmIzIwOTE3OzwvdGV4dD48cmVjdCBmaWxsPSIjRjFGMUYxIiBoZWlnaHQ9IjMyLjg0MzgiIHJ4PSIxMi41IiByeT0iMTIuNSIgc3R5bGU9InN0cm9rZTojMTgxODE4O3N0cm9rZS13aWR0aDowLjU7IiB3aWR0aD0iNjgiIHg9IjM3NSIgeT0iODY4LjU3ODEiLz48dGV4dCBmaWxsPSIjMDAwMDAwIiBmb250LWZhbWlseT0ic2Fucy1zZXJpZiIgZm9udC1zaXplPSIxMiIgbGVuZ3RoQWRqdXN0PSJzcGFjaW5nIiB0ZXh0TGVuZ3RoPSI0OCIgeD0iMzg1IiB5PSI4ODkuOTIxOSI+JiMzNjIyOTsmIzI2MTAyOyYjMzczMjU7JiMzNTc5Nzs8L3RleHQ+PHJlY3QgZmlsbD0iI0YxRjFGMSIgaGVpZ2h0PSIzMi44NDM4IiByeD0iMTIuNSIgcnk9IjEyLjUiIHN0eWxlPSJzdHJva2U6IzE4MTgxODtzdHJva2Utd2lkdGg6MC41OyIgd2lkdGg9IjExNiIgeD0iMzUxIiB5PSI5ODQuNDIxOSIvPjx0ZXh0IGZpbGw9IiMwMDAwMDAiIGZvbnQtZmFtaWx5PSJzYW5zLXNlcmlmIiBmb250LXNpemU9IjEyIiBsZW5ndGhBZGp1c3Q9InNwYWNpbmciIHRleHRMZW5ndGg9Ijk2IiB4PSIzNjEiIHk9IjEwMDUuNzY1NiI+JiMzNzMyNTsmIzI2MDMyOyYjMjEwMTk7JiMyNDMxNDsmIzE5OTc4OyYjMjAyNTY7JiMyMDIxOTsmIzIxMTUzOzwvdGV4dD48cmVjdCBmaWxsPSIjRjFGMUYxIiBoZWlnaHQ9IjMyLjg0MzgiIHJ4PSIxMi41IiByeT0iMTIuNSIgc3R5bGU9InN0cm9rZTojMTgxODE4O3N0cm9rZS13aWR0aDowLjU7IiB3aWR0aD0iMTA0IiB4PSIzNTciIHk9IjEwNTIuMjY1NiIvPjx0ZXh0IGZpbGw9IiMwMDAwMDAiIGZvbnQtZmFtaWx5PSJzYW5zLXNlcmlmIiBmb250LXNpemU9IjEyIiBsZW5ndGhBZGp1c3Q9InNwYWNpbmciIHRleHRMZW5ndGg9Ijg0IiB4PSIzNjciIHk9IjEwNzMuNjA5NCI+JiMyODE1NTsmIzIxMTUyOyYjMjEwNDA7JiMxOTk3ODsmIzIwMjU2OyYjMzg0MzE7JiMyMTAxNTs8L3RleHQ+PHJlY3QgZmlsbD0iI0YxRjFGMSIgaGVpZ2h0PSIzMi44NDM4IiByeD0iMTIuNSIgcnk9IjEyLjUiIHN0eWxlPSJzdHJva2U6IzE4MTgxODtzdHJva2Utd2lkdGg6MC41OyIgd2lkdGg9IjE0MCIgeD0iMzM5IiB5PSIxMTY4LjEwOTQiLz48dGV4dCBmaWxsPSIjMDAwMDAwIiBmb250LWZhbWlseT0ic2Fucy1zZXJpZiIgZm9udC1zaXplPSIxMiIgbGVuZ3RoQWRqdXN0PSJzcGFjaW5nIiB0ZXh0TGVuZ3RoPSIxMjAiIHg9IjM0OSIgeT0iMTE4OS40NTMxIj4mIzMxNTYxOyYjMjQ0NTM7JiMxOTk3ODsmIzIwMjU2OyYjMjAyMTk7JiMyMTE1MzsmIzM4NDMxOyYjMjEwMTU7JiMzMTM1NDsmIzM4Mzg2OzwvdGV4dD48cG9seWdvbiBmaWxsPSIjRjFGMUYxIiBwb2ludHM9IjM2MiwxMTIwLjEwOTQsNDU2LDExMjAuMTA5NCw0NjgsMTEzMi4xMDk0LDQ1NiwxMTQ0LjEwOTQsMzYyLDExNDQuMTA5NCwzNTAsMTEzMi4xMDk0LDM2MiwxMTIwLjEwOTQiIHN0eWxlPSJzdHJva2U6IzE4MTgxODtzdHJva2Utd2lkdGg6MC41OyIvPjx0ZXh0IGZpbGw9IiMwMDAwMDAiIGZvbnQtZmFtaWx5PSJzYW5zLXNlcmlmIiBmb250LXNpemU9IjExIiBsZW5ndGhBZGp1c3Q9InNwYWNpbmciIHRleHRMZW5ndGg9IjExIiB4PSI0MTMiIHk9IjExNTQuNTA3OCI+JiMyNjE1OTs8L3RleHQ+PHRleHQgZmlsbD0iIzAwMDAwMCIgZm9udC1mYW1pbHk9InNhbnMtc2VyaWYiIGZvbnQtc2l6ZT0iMTEiIGxlbmd0aEFkanVzdD0ic3BhY2luZyIgdGV4dExlbmd0aD0iOTQiIHg9IjM2MiIgeT0iMTEzNi42MjExIj4mIzE5OTc4OyYjMjAyNTY7JiMyMDIxOTsmIzIxMTUzOyYjMzg0MzE7JiMyMTAxNTsmIzI0MDUwOyYjMjgzODU7PzwvdGV4dD48cG9seWdvbiBmaWxsPSIjRjFGMUYxIiBwb2ludHM9IjQwOSwxMjI0Ljk1MzEsNDIxLDEyMzYuOTUzMSw0MDksMTI0OC45NTMxLDM5NywxMjM2Ljk1MzEsNDA5LDEyMjQuOTUzMSIgc3R5bGU9InN0cm9rZTojMTgxODE4O3N0cm9rZS13aWR0aDowLjU7Ii8+PHJlY3QgZmlsbD0iI0YxRjFGMSIgaGVpZ2h0PSIzMi44NDM4IiByeD0iMTIuNSIgcnk9IjEyLjUiIHN0eWxlPSJzdHJva2U6IzE4MTgxODtzdHJva2Utd2lkdGg6MC41OyIgd2lkdGg9IjkyIiB4PSIzNjMiIHk9IjEyODMuOTUzMSIvPjx0ZXh0IGZpbGw9IiMwMDAwMDAiIGZvbnQtZmFtaWx5PSJzYW5zLXNlcmlmIiBmb250LXNpemU9IjEyIiBsZW5ndGhBZGp1c3Q9InNwYWNpbmciIHRleHRMZW5ndGg9IjcyIiB4PSIzNzMiIHk9IjEzMDUuMjk2OSI+JiMyNDMyMDsmIzIyOTg3OyYjMTk5Nzg7JiMyMDI1NjsmIzIwMjE5OyYjMjExNTM7PC90ZXh0PjxyZWN0IGZpbGw9IiNGMUYxRjEiIGhlaWdodD0iMzIuODQzOCIgcng9IjEyLjUiIHJ5PSIxMi41IiBzdHlsZT0ic3Ryb2tlOiMxODE4MTg7c3Ryb2tlLXdpZHRoOjAuNTsiIHdpZHRoPSI5MiIgeD0iMzYzIiB5PSIxMzUxLjc5NjkiLz48dGV4dCBmaWxsPSIjMDAwMDAwIiBmb250LWZhbWlseT0ic2Fucy1zZXJpZiIgZm9udC1zaXplPSIxMiIgbGVuZ3RoQWRqdXN0PSJzcGFjaW5nIiB0ZXh0TGVuZ3RoPSI3MiIgeD0iMzczIiB5PSIxMzczLjE0MDYiPiYjMzA0MTc7JiMyNzk3OTsmIzE5OTc4OyYjMjAyNTY7JiMyNDc3MzsmIzIwOTE3OzwvdGV4dD48cG9seWdvbiBmaWxsPSIjRjFGMUYxIiBwb2ludHM9IjM4NCwxNDE1LjY0MDYsNDM0LDE0MTUuNjQwNiw0NDYsMTQyNy42NDA2LDQzNCwxNDM5LjY0MDYsMzg0LDE0MzkuNjQwNiwzNzIsMTQyNy42NDA2LDM4NCwxNDE1LjY0MDYiIHN0eWxlPSJzdHJva2U6IzE4MTgxODtzdHJva2Utd2lkdGg6MC41OyIvPjx0ZXh0IGZpbGw9IiMwMDAwMDAiIGZvbnQtZmFtaWx5PSJzYW5zLXNlcmlmIiBmb250LXNpemU9IjExIiBsZW5ndGhBZGp1c3Q9InNwYWNpbmciIHRleHRMZW5ndGg9IjUwIiB4PSIzODQiIHk9IjE0MzIuMTUyMyI+JiMxOTk3ODsmIzIwMjU2OyYjMjUxMDQ7JiMyMTE1MTs/PC90ZXh0Pjx0ZXh0IGZpbGw9IiMwMDAwMDAiIGZvbnQtZmFtaWx5PSJzYW5zLXNlcmlmIiBmb250LXNpemU9IjExIiBsZW5ndGhBZGp1c3Q9InNwYWNpbmciIHRleHRMZW5ndGg9IjExIiB4PSIzNjEiIHk9IjE0MjYuMjY1NiI+JiMyNjE1OTs8L3RleHQ+PHRleHQgZmlsbD0iIzAwMDAwMCIgZm9udC1mYW1pbHk9InNhbnMtc2VyaWYiIGZvbnQtc2l6ZT0iMTEiIGxlbmd0aEFkanVzdD0ic3BhY2luZyIgdGV4dExlbmd0aD0iMTEiIHg9IjQ0NiIgeT0iMTQyNi4yNjU2Ij4mIzIxNTQyOzwvdGV4dD48cmVjdCBmaWxsPSIjRjFGMUYxIiBoZWlnaHQ9IjMyLjg0MzgiIHJ4PSIxMi41IiByeT0iMTIuNSIgc3R5bGU9InN0cm9rZTojMTgxODE4O3N0cm9rZS13aWR0aDowLjU7IiB3aWR0aD0iNDQiIHg9IjM0MCIgeT0iMTQ0OS42NDA2Ii8+PHRleHQgZmlsbD0iIzAwMDAwMCIgZm9udC1mYW1pbHk9InNhbnMtc2VyaWYiIGZvbnQtc2l6ZT0iMTIiIGxlbmd0aEFkanVzdD0ic3BhY2luZyIgdGV4dExlbmd0aD0iMjQiIHg9IjM1MCIgeT0iMTQ3MC45ODQ0Ij4mIzMyNDY3OyYjMjY0NjM7PC90ZXh0PjxyZWN0IGZpbGw9IiNGMUYxRjEiIGhlaWdodD0iMzIuODQzOCIgcng9IjEyLjUiIHJ5PSIxMi41IiBzdHlsZT0ic3Ryb2tlOiMxODE4MTg7c3Ryb2tlLXdpZHRoOjAuNTsiIHdpZHRoPSI2OCIgeD0iNDIyIiB5PSIxNDQ5LjY0MDYiLz48dGV4dCBmaWxsPSIjMDAwMDAwIiBmb250LWZhbWlseT0ic2Fucy1zZXJpZiIgZm9udC1zaXplPSIxMiIgbGVuZ3RoQWRqdXN0PSJzcGFjaW5nIiB0ZXh0TGVuZ3RoPSI0OCIgeD0iNDMyIiB5PSIxNDcwLjk4NDQiPiYjMzczMjU7JiMzNTc5NzsmIzM2MjI5OyYjMjYxMDI7PC90ZXh0PjxyZWN0IGZpbGw9IiNGMUYxRjEiIGhlaWdodD0iMzIuODQzOCIgcng9IjEyLjUiIHJ5PSIxMi41IiBzdHlsZT0ic3Ryb2tlOiMxODE4MTg7c3Ryb2tlLXdpZHRoOjAuNTsiIHdpZHRoPSI0NCIgeD0iNDM0IiB5PSIxNTE2LjQ4NDQiLz48dGV4dCBmaWxsPSIjMDAwMDAwIiBmb250LWZhbWlseT0ic2Fucy1zZXJpZiIgZm9udC1zaXplPSIxMiIgbGVuZ3RoQWRqdXN0PSJzcGFjaW5nIiB0ZXh0TGVuZ3RoPSIyNCIgeD0iNDQ0IiB5PSIxNTM3LjgyODEiPiYjMzI0Njc7JiMyNjQ2Mzs8L3RleHQ+PHBvbHlnb24gZmlsbD0iI0YxRjFGMSIgcG9pbnRzPSI0MDksMTU1NS4zMjgxLDQyMSwxNTY3LjMyODEsNDA5LDE1NzkuMzI4MSwzOTcsMTU2Ny4zMjgxLDQwOSwxNTU1LjMyODEiIHN0eWxlPSJzdHJva2U6IzE4MTgxODtzdHJva2Utd2lkdGg6MC41OyIvPjxwb2x5Z29uIGZpbGw9IiNGMUYxRjEiIHBvaW50cz0iMzYyLDkzNi40MjE5LDQ1Niw5MzYuNDIxOSw0NjgsOTQ4LjQyMTksNDU2LDk2MC40MjE5LDM2Miw5NjAuNDIxOSwzNTAsOTQ4LjQyMTksMzYyLDkzNi40MjE5IiBzdHlsZT0ic3Ryb2tlOiMxODE4MTg7c3Ryb2tlLXdpZHRoOjAuNTsiLz48dGV4dCBmaWxsPSIjMDAwMDAwIiBmb250LWZhbWlseT0ic2Fucy1zZXJpZiIgZm9udC1zaXplPSIxMSIgbGVuZ3RoQWRqdXN0PSJzcGFjaW5nIiB0ZXh0TGVuZ3RoPSIxMSIgeD0iNDEzIiB5PSI5NzAuODIwMyI+JiMyNjE1OTs8L3RleHQ+PHRleHQgZmlsbD0iIzAwMDAwMCIgZm9udC1mYW1pbHk9InNhbnMtc2VyaWYiIGZvbnQtc2l6ZT0iMTEiIGxlbmd0aEFkanVzdD0ic3BhY2luZyIgdGV4dExlbmd0aD0iOTQiIHg9IjM2MiIgeT0iOTUyLjkzMzYiPiYjMzczMjU7JiMzNTc5NzsmIzI3NDI1OyYjMjU5Njg7JiMzNjIyOTsmIzM2ODA3OyYjMzg0MDg7JiMyMDU0MDs/PC90ZXh0Pjxwb2x5Z29uIGZpbGw9IiNGMUYxRjEiIHBvaW50cz0iNDA5LDE2MDMuMzI4MSw0MjEsMTYxNS4zMjgxLDQwOSwxNjI3LjMyODEsMzk3LDE2MTUuMzI4MSw0MDksMTYwMy4zMjgxIiBzdHlsZT0ic3Ryb2tlOiMxODE4MTg7c3Ryb2tlLXdpZHRoOjAuNTsiLz48cG9seWdvbiBmaWxsPSIjRjFGMUYxIiBwb2ludHM9IjM0MywxNjMzLjMyODEsMzU1LDE2NDUuMzI4MSwzNDMsMTY1Ny4zMjgxLDMzMSwxNjQ1LjMyODEsMzQzLDE2MzMuMzI4MSIgc3R5bGU9InN0cm9rZTojMTgxODE4O3N0cm9rZS13aWR0aDowLjU7Ii8+PHBvbHlnb24gZmlsbD0iI0YxRjFGMSIgcG9pbnRzPSIyMzguNSwxNjYzLjMyODEsMjUwLjUsMTY3NS4zMjgxLDIzOC41LDE2ODcuMzI4MSwyMjYuNSwxNjc1LjMyODEsMjM4LjUsMTY2My4zMjgxIiBzdHlsZT0ic3Ryb2tlOiMxODE4MTg7c3Ryb2tlLXdpZHRoOjAuNTsiLz48cG9seWdvbiBmaWxsPSIjRjFGMUYxIiBwb2ludHM9IjEyMC43NSwxNjkzLjMyODEsMTMyLjc1LDE3MDUuMzI4MSwxMjAuNzUsMTcxNy4zMjgxLDEwOC43NSwxNzA1LjMyODEsMTIwLjc1LDE2OTMuMzI4MSIgc3R5bGU9InN0cm9rZTojMTgxODE4O3N0cm9rZS13aWR0aDowLjU7Ii8+PHJlY3QgZmlsbD0iI0YxRjFGMSIgaGVpZ2h0PSIzMi44NDM4IiByeD0iMTIuNSIgcnk9IjEyLjUiIHN0eWxlPSJzdHJva2U6IzE4MTgxODtzdHJva2Utd2lkdGg6MC41OyIgd2lkdGg9IjQ0IiB4PSI2MTIuNzUiIHk9IjQ1Ny4zNTk0Ii8+PHRleHQgZmlsbD0iIzAwMDAwMCIgZm9udC1mYW1pbHk9InNhbnMtc2VyaWYiIGZvbnQtc2l6ZT0iMTIiIGxlbmd0aEFkanVzdD0ic3BhY2luZyIgdGV4dExlbmd0aD0iMjQiIHg9IjYyMi43NSIgeT0iNDc4LjcwMzEiPiYjMzE1NjE7JiMyNDQ1Mzs8L3RleHQ+PHJlY3QgZmlsbD0iI0YxRjFGMSIgaGVpZ2h0PSIzMi44NDM4IiByeD0iMTIuNSIgcnk9IjEyLjUiIHN0eWxlPSJzdHJva2U6IzE4MTgxODtzdHJva2Utd2lkdGg6MC41OyIgd2lkdGg9IjkyIiB4PSI1ODguNzUiIHk9IjUxMC4yMDMxIi8+PHRleHQgZmlsbD0iIzAwMDAwMCIgZm9udC1mYW1pbHk9InNhbnMtc2VyaWYiIGZvbnQtc2l6ZT0iMTIiIGxlbmd0aEFkanVzdD0ic3BhY2luZyIgdGV4dExlbmd0aD0iNzIiIHg9IjU5OC43NSIgeT0iNTMxLjU0NjkiPiYjMzA0MTc7JiMyNzk3OTsmIzE5OTc4OyYjMjAyNTY7JiMzODQzMTsmIzIxMDE1OzwvdGV4dD48cmVjdCBmaWxsPSIjRjFGMUYxIiBoZWlnaHQ9IjMyLjg0MzgiIHJ4PSIxMi41IiByeT0iMTIuNSIgc3R5bGU9InN0cm9rZTojMTgxODE4O3N0cm9rZS13aWR0aDowLjU7IiB3aWR0aD0iOTIiIHg9IjU4OC43NSIgeT0iNjExLjA0NjkiLz48dGV4dCBmaWxsPSIjMDAwMDAwIiBmb250LWZhbWlseT0ic2Fucy1zZXJpZiIgZm9udC1zaXplPSIxMiIgbGVuZ3RoQWRqdXN0PSJzcGFjaW5nIiB0ZXh0TGVuZ3RoPSI3MiIgeD0iNTk4Ljc1IiB5PSI2MzIuMzkwNiI+JiMyNDMyMDsmIzIyOTg3OyYjMTk5Nzg7JiMyMDI1NjsmIzIwMjE5OyYjMjExNTM7PC90ZXh0PjxyZWN0IGZpbGw9IiNGMUYxRjEiIGhlaWdodD0iMzIuODQzOCIgcng9IjEyLjUiIHJ5PSIxMi41IiBzdHlsZT0ic3Ryb2tlOiMxODE4MTg7c3Ryb2tlLXdpZHRoOjAuNTsiIHdpZHRoPSI5MiIgeD0iNTg4Ljc1IiB5PSI2NzguODkwNiIvPjx0ZXh0IGZpbGw9IiMwMDAwMDAiIGZvbnQtZmFtaWx5PSJzYW5zLXNlcmlmIiBmb250LXNpemU9IjEyIiBsZW5ndGhBZGp1c3Q9InNwYWNpbmciIHRleHRMZW5ndGg9IjcyIiB4PSI1OTguNzUiIHk9IjcwMC4yMzQ0Ij4mIzMwNDE3OyYjMjc5Nzk7JiMxOTk3ODsmIzIwMjU2OyYjMjQ3NzM7JiMyMDkxNzs8L3RleHQ+PHBvbHlnb24gZmlsbD0iI0YxRjFGMSIgcG9pbnRzPSI2MDkuNzUsNzQ2LjczNDQsNjU5Ljc1LDc0Ni43MzQ0LDY3MS43NSw3NTguNzM0NCw2NTkuNzUsNzcwLjczNDQsNjA5Ljc1LDc3MC43MzQ0LDU5Ny43NSw3NTguNzM0NCw2MDkuNzUsNzQ2LjczNDQiIHN0eWxlPSJzdHJva2U6IzE4MTgxODtzdHJva2Utd2lkdGg6MC41OyIvPjx0ZXh0IGZpbGw9IiMwMDAwMDAiIGZvbnQtZmFtaWx5PSJzYW5zLXNlcmlmIiBmb250LXNpemU9IjExIiBsZW5ndGhBZGp1c3Q9InNwYWNpbmciIHRleHRMZW5ndGg9IjUwIiB4PSI2MDkuNzUiIHk9Ijc2My4yNDYxIj4mIzE5OTc4OyYjMjAyNTY7JiMyNTEwNDsmIzIxMTUxOz88L3RleHQ+PHRleHQgZmlsbD0iIzAwMDAwMCIgZm9udC1mYW1pbHk9InNhbnMtc2VyaWYiIGZvbnQtc2l6ZT0iMTEiIGxlbmd0aEFkanVzdD0ic3BhY2luZyIgdGV4dExlbmd0aD0iMTEiIHg9IjU4Ni43NSIgeT0iNzU3LjM1OTQiPiYjMjYxNTk7PC90ZXh0Pjx0ZXh0IGZpbGw9IiMwMDAwMDAiIGZvbnQtZmFtaWx5PSJzYW5zLXNlcmlmIiBmb250LXNpemU9IjExIiBsZW5ndGhBZGp1c3Q9InNwYWNpbmciIHRleHRMZW5ndGg9IjExIiB4PSI2NzEuNzUiIHk9Ijc1Ny4zNTk0Ij4mIzIxNTQyOzwvdGV4dD48cmVjdCBmaWxsPSIjRjFGMUYxIiBoZWlnaHQ9IjMyLjg0MzgiIHJ4PSIxMi41IiByeT0iMTIuNSIgc3R5bGU9InN0cm9rZTojMTgxODE4O3N0cm9rZS13aWR0aDowLjU7IiB3aWR0aD0iNDQiIHg9IjUyNSIgeT0iNzgwLjczNDQiLz48dGV4dCBmaWxsPSIjMDAwMDAwIiBmb250LWZhbWlseT0ic2Fucy1zZXJpZiIgZm9udC1zaXplPSIxMiIgbGVuZ3RoQWRqdXN0PSJzcGFjaW5nIiB0ZXh0TGVuZ3RoPSIyNCIgeD0iNTM1IiB5PSI4MDIuMDc4MSI+JiMzMjQ2NzsmIzI2NDYzOzwvdGV4dD48cG9seWdvbiBmaWxsPSIjRjFGMUYxIiBwb2ludHM9IjcyNy41LDc4MC43MzQ0LDc3Ny41LDc4MC43MzQ0LDc4OS41LDc5Mi43MzQ0LDc3Ny41LDgwNC43MzQ0LDcyNy41LDgwNC43MzQ0LDcxNS41LDc5Mi43MzQ0LDcyNy41LDc4MC43MzQ0IiBzdHlsZT0ic3Ryb2tlOiMxODE4MTg7c3Ryb2tlLXdpZHRoOjAuNTsiLz48dGV4dCBmaWxsPSIjMDAwMDAwIiBmb250LWZhbWlseT0ic2Fucy1zZXJpZiIgZm9udC1zaXplPSIxMSIgbGVuZ3RoQWRqdXN0PSJzcGFjaW5nIiB0ZXh0TGVuZ3RoPSI1MCIgeD0iNzI3LjUiIHk9Ijc5Ny4yNDYxIj4mIzE5OTc4OyYjMjAyNTY7JiMzNjIyOTsmIzI2MTAyOz88L3RleHQ+PHRleHQgZmlsbD0iIzAwMDAwMCIgZm9udC1mYW1pbHk9InNhbnMtc2VyaWYiIGZvbnQtc2l6ZT0iMTEiIGxlbmd0aEFkanVzdD0ic3BhY2luZyIgdGV4dExlbmd0aD0iMTEiIHg9IjcwNC41IiB5PSI3OTEuMzU5NCI+JiMyNjE1OTs8L3RleHQ+PHRleHQgZmlsbD0iIzAwMDAwMCIgZm9udC1mYW1pbHk9InNhbnMtc2VyaWYiIGZvbnQtc2l6ZT0iMTEiIGxlbmd0aEFkanVzdD0ic3BhY2luZyIgdGV4dExlbmd0aD0iMTEiIHg9Ijc4OS41IiB5PSI3OTEuMzU5NCI+JiMyMTU0Mjs8L3RleHQ+PHJlY3QgZmlsbD0iI0YxRjFGMSIgaGVpZ2h0PSIzMi44NDM4IiByeD0iMTIuNSIgcnk9IjEyLjUiIHN0eWxlPSJzdHJva2U6IzE4MTgxODtzdHJva2Utd2lkdGg6MC41OyIgd2lkdGg9IjkyIiB4PSI2MDIiIHk9IjgxNC43MzQ0Ii8+PHRleHQgZmlsbD0iIzAwMDAwMCIgZm9udC1mYW1pbHk9InNhbnMtc2VyaWYiIGZvbnQtc2l6ZT0iMTIiIGxlbmd0aEFkanVzdD0ic3BhY2luZyIgdGV4dExlbmd0aD0iNzIiIHg9IjYxMiIgeT0iODM2LjA3ODEiPiYjMzczMjU7JiMyNjAzMjsmIzE5OTc4OyYjMjAyNTY7JiMyMDIxOTsmIzIxMTUzOzwvdGV4dD48cmVjdCBmaWxsPSIjRjFGMUYxIiBoZWlnaHQ9IjMyLjg0MzgiIHJ4PSIxMi41IiByeT0iMTIuNSIgc3R5bGU9InN0cm9rZTojMTgxODE4O3N0cm9rZS13aWR0aDowLjU7IiB3aWR0aD0iMTA0IiB4PSI1OTYiIHk9Ijg4Mi41NzgxIi8+PHRleHQgZmlsbD0iIzAwMDAwMCIgZm9udC1mYW1pbHk9InNhbnMtc2VyaWYiIGZvbnQtc2l6ZT0iMTIiIGxlbmd0aEFkanVzdD0ic3BhY2luZyIgdGV4dExlbmd0aD0iODQiIHg9IjYwNiIgeT0iOTAzLjkyMTkiPiYjMjgxNTU7JiMyMTE1MjsmIzIxMDQwOyYjMTk5Nzg7JiMyMDI1NjsmIzM4NDMxOyYjMjEwMTU7PC90ZXh0PjxyZWN0IGZpbGw9IiNGMUYxRjEiIGhlaWdodD0iMzIuODQzOCIgcng9IjEyLjUiIHJ5PSIxMi41IiBzdHlsZT0ic3Ryb2tlOiMxODE4MTg7c3Ryb2tlLXdpZHRoOjAuNTsiIHdpZHRoPSI5MiIgeD0iNjAyIiB5PSI5NTAuNDIxOSIvPjx0ZXh0IGZpbGw9IiMwMDAwMDAiIGZvbnQtZmFtaWx5PSJzYW5zLXNlcmlmIiBmb250LXNpemU9IjEyIiBsZW5ndGhBZGp1c3Q9InNwYWNpbmciIHRleHRMZW5ndGg9IjcyIiB4PSI2MTIiIHk9Ijk3MS43NjU2Ij4mIzI0MzIwOyYjMjI5ODc7JiMxOTk3ODsmIzIwMjU2OyYjMjAyMTk7JiMyMTE1Mzs8L3RleHQ+PHJlY3QgZmlsbD0iI0YxRjFGMSIgaGVpZ2h0PSIzMi44NDM4IiByeD0iMTIuNSIgcnk9IjEyLjUiIHN0eWxlPSJzdHJva2U6IzE4MTgxODtzdHJva2Utd2lkdGg6MC41OyIgd2lkdGg9IjkyIiB4PSI2MDIiIHk9IjEwMTguMjY1NiIvPjx0ZXh0IGZpbGw9IiMwMDAwMDAiIGZvbnQtZmFtaWx5PSJzYW5zLXNlcmlmIiBmb250LXNpemU9IjEyIiBsZW5ndGhBZGp1c3Q9InNwYWNpbmciIHRleHRMZW5ndGg9IjcyIiB4PSI2MTIiIHk9IjEwMzkuNjA5NCI+JiMzMDQxNzsmIzI3OTc5OyYjMTk5Nzg7JiMyMDI1NjsmIzI0NzczOyYjMjA5MTc7PC90ZXh0Pjxwb2x5Z29uIGZpbGw9IiNGMUYxRjEiIHBvaW50cz0iNjIzLDEwODYuMTA5NCw2NzMsMTA4Ni4xMDk0LDY4NSwxMDk4LjEwOTQsNjczLDExMTAuMTA5NCw2MjMsMTExMC4xMDk0LDYxMSwxMDk4LjEwOTQsNjIzLDEwODYuMTA5NCIgc3R5bGU9InN0cm9rZTojMTgxODE4O3N0cm9rZS13aWR0aDowLjU7Ii8+PHRleHQgZmlsbD0iIzAwMDAwMCIgZm9udC1mYW1pbHk9InNhbnMtc2VyaWYiIGZvbnQtc2l6ZT0iMTEiIGxlbmd0aEFkanVzdD0ic3BhY2luZyIgdGV4dExlbmd0aD0iNTAiIHg9IjYyMyIgeT0iMTEwMi42MjExIj4mIzE5OTc4OyYjMjAyNTY7JiMyNTEwNDsmIzIxMTUxOz88L3RleHQ+PHRleHQgZmlsbD0iIzAwMDAwMCIgZm9udC1mYW1pbHk9InNhbnMtc2VyaWYiIGZvbnQtc2l6ZT0iMTEiIGxlbmd0aEFkanVzdD0ic3BhY2luZyIgdGV4dExlbmd0aD0iMTEiIHg9IjYwMCIgeT0iMTA5Ni43MzQ0Ij4mIzI2MTU5OzwvdGV4dD48dGV4dCBmaWxsPSIjMDAwMDAwIiBmb250LWZhbWlseT0ic2Fucy1zZXJpZiIgZm9udC1zaXplPSIxMSIgbGVuZ3RoQWRqdXN0PSJzcGFjaW5nIiB0ZXh0TGVuZ3RoPSIxMSIgeD0iNjg1IiB5PSIxMDk2LjczNDQiPiYjMjE1NDI7PC90ZXh0PjxyZWN0IGZpbGw9IiNGMUYxRjEiIGhlaWdodD0iMzIuODQzOCIgcng9IjEyLjUiIHJ5PSIxMi41IiBzdHlsZT0ic3Ryb2tlOiMxODE4MTg7c3Ryb2tlLXdpZHRoOjAuNTsiIHdpZHRoPSI0NCIgeD0iNTc5IiB5PSIxMTIwLjEwOTQiLz48dGV4dCBmaWxsPSIjMDAwMDAwIiBmb250LWZhbWlseT0ic2Fucy1zZXJpZiIgZm9udC1zaXplPSIxMiIgbGVuZ3RoQWRqdXN0PSJzcGFjaW5nIiB0ZXh0TGVuZ3RoPSIyNCIgeD0iNTg5IiB5PSIxMTQxLjQ1MzEiPiYjMzI0Njc7JiMyNjQ2Mzs8L3RleHQ+PHJlY3QgZmlsbD0iI0YxRjFGMSIgaGVpZ2h0PSIzMi44NDM4IiByeD0iMTIuNSIgcnk9IjEyLjUiIHN0eWxlPSJzdHJva2U6IzE4MTgxODtzdHJva2Utd2lkdGg6MC41OyIgd2lkdGg9IjY4IiB4PSI2NjEiIHk9IjExMjAuMTA5NCIvPjx0ZXh0IGZpbGw9IiMwMDAwMDAiIGZvbnQtZmFtaWx5PSJzYW5zLXNlcmlmIiBmb250LXNpemU9IjEyIiBsZW5ndGhBZGp1c3Q9InNwYWNpbmciIHRleHRMZW5ndGg9IjQ4IiB4PSI2NzEiIHk9IjExNDEuNDUzMSI+JiMzNzMyNTsmIzM1Nzk3OyYjMzYyMjk7JiMyNjEwMjs8L3RleHQ+PHJlY3QgZmlsbD0iI0YxRjFGMSIgaGVpZ2h0PSIzMi44NDM4IiByeD0iMTIuNSIgcnk9IjEyLjUiIHN0eWxlPSJzdHJva2U6IzE4MTgxODtzdHJva2Utd2lkdGg6MC41OyIgd2lkdGg9IjQ0IiB4PSI2NzMiIHk9IjExODcuOTUzMSIvPjx0ZXh0IGZpbGw9IiMwMDAwMDAiIGZvbnQtZmFtaWx5PSJzYW5zLXNlcmlmIiBmb250LXNpemU9IjEyIiBsZW5ndGhBZGp1c3Q9InNwYWNpbmciIHRleHRMZW5ndGg9IjI0IiB4PSI2ODMiIHk9IjEyMDkuMjk2OSI+JiMzMjQ2NzsmIzI2NDYzOzwvdGV4dD48cG9seWdvbiBmaWxsPSIjRjFGMUYxIiBwb2ludHM9IjY0OCwxMjI2Ljc5NjksNjYwLDEyMzguNzk2OSw2NDgsMTI1MC43OTY5LDYzNiwxMjM4Ljc5NjksNjQ4LDEyMjYuNzk2OSIgc3R5bGU9InN0cm9rZTojMTgxODE4O3N0cm9rZS13aWR0aDowLjU7Ii8+PHJlY3QgZmlsbD0iI0YxRjFGMSIgaGVpZ2h0PSIzMi44NDM4IiByeD0iMTIuNSIgcnk9IjEyLjUiIHN0eWxlPSJzdHJva2U6IzE4MTgxODtzdHJva2Utd2lkdGg6MC41OyIgd2lkdGg9IjQ0IiB4PSI4MzUiIHk9IjgxNC43MzQ0Ii8+PHRleHQgZmlsbD0iIzAwMDAwMCIgZm9udC1mYW1pbHk9InNhbnMtc2VyaWYiIGZvbnQtc2l6ZT0iMTIiIGxlbmd0aEFkanVzdD0ic3BhY2luZyIgdGV4dExlbmd0aD0iMjQiIHg9Ijg0NSIgeT0iODM2LjA3ODEiPiYjMzE1NjE7JiMyNDQ1Mzs8L3RleHQ+PHJlY3QgZmlsbD0iI0YxRjFGMSIgaGVpZ2h0PSIzMi44NDM4IiByeD0iMTIuNSIgcnk9IjEyLjUiIHN0eWxlPSJzdHJva2U6IzE4MTgxODtzdHJva2Utd2lkdGg6MC41OyIgd2lkdGg9IjkyIiB4PSI4MTEiIHk9Ijg4Mi41NzgxIi8+PHRleHQgZmlsbD0iIzAwMDAwMCIgZm9udC1mYW1pbHk9InNhbnMtc2VyaWYiIGZvbnQtc2l6ZT0iMTIiIGxlbmd0aEFkanVzdD0ic3BhY2luZyIgdGV4dExlbmd0aD0iNzIiIHg9IjgyMSIgeT0iOTAzLjkyMTkiPiYjMzA0MTc7JiMyNzk3OTsmIzE5OTc4OyYjMjAyNTY7JiMyNDc3MzsmIzIwOTE3OzwvdGV4dD48cG9seWdvbiBmaWxsPSIjRjFGMUYxIiBwb2ludHM9IjgzMiw5NTAuNDIxOSw4ODIsOTUwLjQyMTksODk0LDk2Mi40MjE5LDg4Miw5NzQuNDIxOSw4MzIsOTc0LjQyMTksODIwLDk2Mi40MjE5LDgzMiw5NTAuNDIxOSIgc3R5bGU9InN0cm9rZTojMTgxODE4O3N0cm9rZS13aWR0aDowLjU7Ii8+PHRleHQgZmlsbD0iIzAwMDAwMCIgZm9udC1mYW1pbHk9InNhbnMtc2VyaWYiIGZvbnQtc2l6ZT0iMTEiIGxlbmd0aEFkanVzdD0ic3BhY2luZyIgdGV4dExlbmd0aD0iNTAiIHg9IjgzMiIgeT0iOTY2LjkzMzYiPiYjMTk5Nzg7JiMyMDI1NjsmIzI1MTA0OyYjMjExNTE7PzwvdGV4dD48dGV4dCBmaWxsPSIjMDAwMDAwIiBmb250LWZhbWlseT0ic2Fucy1zZXJpZiIgZm9udC1zaXplPSIxMSIgbGVuZ3RoQWRqdXN0PSJzcGFjaW5nIiB0ZXh0TGVuZ3RoPSIxMSIgeD0iODA5IiB5PSI5NjEuMDQ2OSI+JiMyNjE1OTs8L3RleHQ+PHRleHQgZmlsbD0iIzAwMDAwMCIgZm9udC1mYW1pbHk9InNhbnMtc2VyaWYiIGZvbnQtc2l6ZT0iMTEiIGxlbmd0aEFkanVzdD0ic3BhY2luZyIgdGV4dExlbmd0aD0iMTEiIHg9Ijg5NCIgeT0iOTYxLjA0NjkiPiYjMjE1NDI7PC90ZXh0PjxyZWN0IGZpbGw9IiNGMUYxRjEiIGhlaWdodD0iMzIuODQzOCIgcng9IjEyLjUiIHJ5PSIxMi41IiBzdHlsZT0ic3Ryb2tlOiMxODE4MTg7c3Ryb2tlLXdpZHRoOjAuNTsiIHdpZHRoPSI0NCIgeD0iNzY5IiB5PSI5ODQuNDIxOSIvPjx0ZXh0IGZpbGw9IiMwMDAwMDAiIGZvbnQtZmFtaWx5PSJzYW5zLXNlcmlmIiBmb250LXNpemU9IjEyIiBsZW5ndGhBZGp1c3Q9InNwYWNpbmciIHRleHRMZW5ndGg9IjI0IiB4PSI3NzkiIHk9IjEwMDUuNzY1NiI+JiMzMjQ2NzsmIzI2NDYzOzwvdGV4dD48cmVjdCBmaWxsPSIjRjFGMUYxIiBoZWlnaHQ9IjMyLjg0MzgiIHJ4PSIxMi41IiByeT0iMTIuNSIgc3R5bGU9InN0cm9rZTojMTgxODE4O3N0cm9rZS13aWR0aDowLjU7IiB3aWR0aD0iMTE2IiB4PSI4NjUiIHk9Ijk4NC40MjE5Ii8+PHRleHQgZmlsbD0iIzAwMDAwMCIgZm9udC1mYW1pbHk9InNhbnMtc2VyaWYiIGZvbnQtc2l6ZT0iMTIiIGxlbmd0aEFkanVzdD0ic3BhY2luZyIgdGV4dExlbmd0aD0iOTYiIHg9Ijg3NSIgeT0iMTAwNS43NjU2Ij4mIzM3MzI1OyYjMjYwMzI7JiMzMDQxNzsmIzI3OTc5OyYjMTk5Nzg7JiMyMDI1NjsmIzI0NzczOyYjMjA5MTc7PC90ZXh0PjxyZWN0IGZpbGw9IiNGMUYxRjEiIGhlaWdodD0iMzIuODQzOCIgcng9IjEyLjUiIHJ5PSIxMi41IiBzdHlsZT0ic3Ryb2tlOiMxODE4MTg7c3Ryb2tlLXdpZHRoOjAuNTsiIHdpZHRoPSI2OCIgeD0iODg5IiB5PSIxMDUyLjI2NTYiLz48dGV4dCBmaWxsPSIjMDAwMDAwIiBmb250LWZhbWlseT0ic2Fucy1zZXJpZiIgZm9udC1zaXplPSIxMiIgbGVuZ3RoQWRqdXN0PSJzcGFjaW5nIiB0ZXh0TGVuZ3RoPSI0OCIgeD0iODk5IiB5PSIxMDczLjYwOTQiPiYjMzYyMjk7JiMyNjEwMjsmIzM3MzI1OyYjMzU3OTc7PC90ZXh0PjxyZWN0IGZpbGw9IiNGMUYxRjEiIGhlaWdodD0iMzIuODQzOCIgcng9IjEyLjUiIHJ5PSIxMi41IiBzdHlsZT0ic3Ryb2tlOiMxODE4MTg7c3Ryb2tlLXdpZHRoOjAuNTsiIHdpZHRoPSIxMTYiIHg9Ijg2NSIgeT0iMTE2OC4xMDk0Ii8+PHRleHQgZmlsbD0iIzAwMDAwMCIgZm9udC1mYW1pbHk9InNhbnMtc2VyaWYiIGZvbnQtc2l6ZT0iMTIiIGxlbmd0aEFkanVzdD0ic3BhY2luZyIgdGV4dExlbmd0aD0iOTYiIHg9Ijg3NSIgeT0iMTE4OS40NTMxIj4mIzM3MzI1OyYjMjYwMzI7JiMyMTAxOTsmIzI0MzE0OyYjMTk5Nzg7JiMyMDI1NjsmIzIwMjE5OyYjMjExNTM7PC90ZXh0PjxyZWN0IGZpbGw9IiNGMUYxRjEiIGhlaWdodD0iMzIuODQzOCIgcng9IjEyLjUiIHJ5PSIxMi41IiBzdHlsZT0ic3Ryb2tlOiMxODE4MTg7c3Ryb2tlLXdpZHRoOjAuNTsiIHdpZHRoPSIxMDQiIHg9Ijg3MSIgeT0iMTIzNS45NTMxIi8+PHRleHQgZmlsbD0iIzAwMDAwMCIgZm9udC1mYW1pbHk9InNhbnMtc2VyaWYiIGZvbnQtc2l6ZT0iMTIiIGxlbmd0aEFkanVzdD0ic3BhY2luZyIgdGV4dExlbmd0aD0iODQiIHg9Ijg4MSIgeT0iMTI1Ny4yOTY5Ij4mIzI4MTU1OyYjMjExNTI7JiMyMTA0MDsmIzE5OTc4OyYjMjAyNTY7JiMzODQzMTsmIzIxMDE1OzwvdGV4dD48cmVjdCBmaWxsPSIjRjFGMUYxIiBoZWlnaHQ9IjMyLjg0MzgiIHJ4PSIxMi41IiByeT0iMTIuNSIgc3R5bGU9InN0cm9rZTojMTgxODE4O3N0cm9rZS13aWR0aDowLjU7IiB3aWR0aD0iMTQwIiB4PSI4NTMiIHk9IjEzNTEuNzk2OSIvPjx0ZXh0IGZpbGw9IiMwMDAwMDAiIGZvbnQtZmFtaWx5PSJzYW5zLXNlcmlmIiBmb250LXNpemU9IjEyIiBsZW5ndGhBZGp1c3Q9InNwYWNpbmciIHRleHRMZW5ndGg9IjEyMCIgeD0iODYzIiB5PSIxMzczLjE0MDYiPiYjMzE1NjE7JiMyNDQ1MzsmIzE5OTc4OyYjMjAyNTY7JiMyMDIxOTsmIzIxMTUzOyYjMzg0MzE7JiMyMTAxNTsmIzMxMzU0OyYjMzgzODY7PC90ZXh0Pjxwb2x5Z29uIGZpbGw9IiNGMUYxRjEiIHBvaW50cz0iODc2LDEzMDMuNzk2OSw5NzAsMTMwMy43OTY5LDk4MiwxMzE1Ljc5NjksOTcwLDEzMjcuNzk2OSw4NzYsMTMyNy43OTY5LDg2NCwxMzE1Ljc5NjksODc2LDEzMDMuNzk2OSIgc3R5bGU9InN0cm9rZTojMTgxODE4O3N0cm9rZS13aWR0aDowLjU7Ii8+PHRleHQgZmlsbD0iIzAwMDAwMCIgZm9udC1mYW1pbHk9InNhbnMtc2VyaWYiIGZvbnQtc2l6ZT0iMTEiIGxlbmd0aEFkanVzdD0ic3BhY2luZyIgdGV4dExlbmd0aD0iMTEiIHg9IjkyNyIgeT0iMTMzOC4xOTUzIj4mIzI2MTU5OzwvdGV4dD48dGV4dCBmaWxsPSIjMDAwMDAwIiBmb250LWZhbWlseT0ic2Fucy1zZXJpZiIgZm9udC1zaXplPSIxMSIgbGVuZ3RoQWRqdXN0PSJzcGFjaW5nIiB0ZXh0TGVuZ3RoPSI5NCIgeD0iODc2IiB5PSIxMzIwLjMwODYiPiYjMTk5Nzg7JiMyMDI1NjsmIzIwMjE5OyYjMjExNTM7JiMzODQzMTsmIzIxMDE1OyYjMjQwNTA7JiMyODM4NTs/PC90ZXh0Pjxwb2x5Z29uIGZpbGw9IiNGMUYxRjEiIHBvaW50cz0iOTIzLDE0MDQuNjQwNiw5MzUsMTQxNi42NDA2LDkyMywxNDI4LjY0MDYsOTExLDE0MTYuNjQwNiw5MjMsMTQwNC42NDA2IiBzdHlsZT0ic3Ryb2tlOiMxODE4MTg7c3Ryb2tlLXdpZHRoOjAuNTsiLz48cmVjdCBmaWxsPSIjRjFGMUYxIiBoZWlnaHQ9IjMyLjg0MzgiIHJ4PSIxMi41IiByeT0iMTIuNSIgc3R5bGU9InN0cm9rZTojMTgxODE4O3N0cm9rZS13aWR0aDowLjU7IiB3aWR0aD0iOTIiIHg9Ijg3NyIgeT0iMTQ2My42NDA2Ii8+PHRleHQgZmlsbD0iIzAwMDAwMCIgZm9udC1mYW1pbHk9InNhbnMtc2VyaWYiIGZvbnQtc2l6ZT0iMTIiIGxlbmd0aEFkanVzdD0ic3BhY2luZyIgdGV4dExlbmd0aD0iNzIiIHg9Ijg4NyIgeT0iMTQ4NC45ODQ0Ij4mIzI0MzIwOyYjMjI5ODc7JiMxOTk3ODsmIzIwMjU2OyYjMjAyMTk7JiMyMTE1Mzs8L3RleHQ+PHJlY3QgZmlsbD0iI0YxRjFGMSIgaGVpZ2h0PSIzMi44NDM4IiByeD0iMTIuNSIgcnk9IjEyLjUiIHN0eWxlPSJzdHJva2U6IzE4MTgxODtzdHJva2Utd2lkdGg6MC41OyIgd2lkdGg9IjkyIiB4PSI4NzciIHk9IjE1MzAuNDg0NCIvPjx0ZXh0IGZpbGw9IiMwMDAwMDAiIGZvbnQtZmFtaWx5PSJzYW5zLXNlcmlmIiBmb250LXNpemU9IjEyIiBsZW5ndGhBZGp1c3Q9InNwYWNpbmciIHRleHRMZW5ndGg9IjcyIiB4PSI4ODciIHk9IjE1NTEuODI4MSI+JiMzMDQxNzsmIzI3OTc5OyYjMTk5Nzg7JiMyMDI1NjsmIzI0NzczOyYjMjA5MTc7PC90ZXh0Pjxwb2x5Z29uIGZpbGw9IiNGMUYxRjEiIHBvaW50cz0iODk4LDE1OTguMzI4MSw5NDgsMTU5OC4zMjgxLDk2MCwxNjEwLjMyODEsOTQ4LDE2MjIuMzI4MSw4OTgsMTYyMi4zMjgxLDg4NiwxNjEwLjMyODEsODk4LDE1OTguMzI4MSIgc3R5bGU9InN0cm9rZTojMTgxODE4O3N0cm9rZS13aWR0aDowLjU7Ii8+PHRleHQgZmlsbD0iIzAwMDAwMCIgZm9udC1mYW1pbHk9InNhbnMtc2VyaWYiIGZvbnQtc2l6ZT0iMTEiIGxlbmd0aEFkanVzdD0ic3BhY2luZyIgdGV4dExlbmd0aD0iNTAiIHg9Ijg5OCIgeT0iMTYxNC44Mzk4Ij4mIzE5OTc4OyYjMjAyNTY7JiMyNTEwNDsmIzIxMTUxOz88L3RleHQ+PHRleHQgZmlsbD0iIzAwMDAwMCIgZm9udC1mYW1pbHk9InNhbnMtc2VyaWYiIGZvbnQtc2l6ZT0iMTEiIGxlbmd0aEFkanVzdD0ic3BhY2luZyIgdGV4dExlbmd0aD0iMTEiIHg9Ijg3NSIgeT0iMTYwOC45NTMxIj4mIzI2MTU5OzwvdGV4dD48dGV4dCBmaWxsPSIjMDAwMDAwIiBmb250LWZhbWlseT0ic2Fucy1zZXJpZiIgZm9udC1zaXplPSIxMSIgbGVuZ3RoQWRqdXN0PSJzcGFjaW5nIiB0ZXh0TGVuZ3RoPSIxMSIgeD0iOTYwIiB5PSIxNjA4Ljk1MzEiPiYjMjE1NDI7PC90ZXh0PjxyZWN0IGZpbGw9IiNGMUYxRjEiIGhlaWdodD0iMzIuODQzOCIgcng9IjEyLjUiIHJ5PSIxMi41IiBzdHlsZT0ic3Ryb2tlOiMxODE4MTg7c3Ryb2tlLXdpZHRoOjAuNTsiIHdpZHRoPSI0NCIgeD0iODU0IiB5PSIxNjMyLjMyODEiLz48dGV4dCBmaWxsPSIjMDAwMDAwIiBmb250LWZhbWlseT0ic2Fucy1zZXJpZiIgZm9udC1zaXplPSIxMiIgbGVuZ3RoQWRqdXN0PSJzcGFjaW5nIiB0ZXh0TGVuZ3RoPSIyNCIgeD0iODY0IiB5PSIxNjUzLjY3MTkiPiYjMzI0Njc7JiMyNjQ2Mzs8L3RleHQ+PHJlY3QgZmlsbD0iI0YxRjFGMSIgaGVpZ2h0PSIzMi44NDM4IiByeD0iMTIuNSIgcnk9IjEyLjUiIHN0eWxlPSJzdHJva2U6IzE4MTgxODtzdHJva2Utd2lkdGg6MC41OyIgd2lkdGg9IjY4IiB4PSI5MzYiIHk9IjE2MzIuMzI4MSIvPjx0ZXh0IGZpbGw9IiMwMDAwMDAiIGZvbnQtZmFtaWx5PSJzYW5zLXNlcmlmIiBmb250LXNpemU9IjEyIiBsZW5ndGhBZGp1c3Q9InNwYWNpbmciIHRleHRMZW5ndGg9IjQ4IiB4PSI5NDYiIHk9IjE2NTMuNjcxOSI+JiMzNzMyNTsmIzM1Nzk3OyYjMzYyMjk7JiMyNjEwMjs8L3RleHQ+PHJlY3QgZmlsbD0iI0YxRjFGMSIgaGVpZ2h0PSIzMi44NDM4IiByeD0iMTIuNSIgcnk9IjEyLjUiIHN0eWxlPSJzdHJva2U6IzE4MTgxODtzdHJva2Utd2lkdGg6MC41OyIgd2lkdGg9IjQ0IiB4PSI5NDgiIHk9IjE3MDAuMTcxOSIvPjx0ZXh0IGZpbGw9IiMwMDAwMDAiIGZvbnQtZmFtaWx5PSJzYW5zLXNlcmlmIiBmb250LXNpemU9IjEyIiBsZW5ndGhBZGp1c3Q9InNwYWNpbmciIHRleHRMZW5ndGg9IjI0IiB4PSI5NTgiIHk9IjE3MjEuNTE1NiI+JiMzMjQ2NzsmIzI2NDYzOzwvdGV4dD48cG9seWdvbiBmaWxsPSIjRjFGMUYxIiBwb2ludHM9IjkyMywxNzM5LjAxNTYsOTM1LDE3NTEuMDE1Niw5MjMsMTc2My4wMTU2LDkxMSwxNzUxLjAxNTYsOTIzLDE3MzkuMDE1NiIgc3R5bGU9InN0cm9rZTojMTgxODE4O3N0cm9rZS13aWR0aDowLjU7Ii8+PHBvbHlnb24gZmlsbD0iI0YxRjFGMSIgcG9pbnRzPSI4NzYsMTEyMC4xMDk0LDk3MCwxMTIwLjEwOTQsOTgyLDExMzIuMTA5NCw5NzAsMTE0NC4xMDk0LDg3NiwxMTQ0LjEwOTQsODY0LDExMzIuMTA5NCw4NzYsMTEyMC4xMDk0IiBzdHlsZT0ic3Ryb2tlOiMxODE4MTg7c3Ryb2tlLXdpZHRoOjAuNTsiLz48dGV4dCBmaWxsPSIjMDAwMDAwIiBmb250LWZhbWlseT0ic2Fucy1zZXJpZiIgZm9udC1zaXplPSIxMSIgbGVuZ3RoQWRqdXN0PSJzcGFjaW5nIiB0ZXh0TGVuZ3RoPSIxMSIgeD0iOTI3IiB5PSIxMTU0LjUwNzgiPiYjMjYxNTk7PC90ZXh0Pjx0ZXh0IGZpbGw9IiMwMDAwMDAiIGZvbnQtZmFtaWx5PSJzYW5zLXNlcmlmIiBmb250LXNpemU9IjExIiBsZW5ndGhBZGp1c3Q9InNwYWNpbmciIHRleHRMZW5ndGg9Ijk0IiB4PSI4NzYiIHk9IjExMzYuNjIxMSI+JiMzNzMyNTsmIzM1Nzk3OyYjMjc0MjU7JiMyNTk2ODsmIzM2MjI5OyYjMzY4MDc7JiMzODQwODsmIzIwNTQwOz88L3RleHQ+PHBvbHlnb24gZmlsbD0iI0YxRjFGMSIgcG9pbnRzPSI5MjMsMTc4My4wMTU2LDkzNSwxNzk1LjAxNTYsOTIzLDE4MDcuMDE1Niw5MTEsMTc5NS4wMTU2LDkyMywxNzgzLjAxNTYiIHN0eWxlPSJzdHJva2U6IzE4MTgxODtzdHJva2Utd2lkdGg6MC41OyIvPjxwb2x5Z29uIGZpbGw9IiNGMUYxRjEiIHBvaW50cz0iODU3LDE4MTMuMDE1Niw4NjksMTgyNS4wMTU2LDg1NywxODM3LjAxNTYsODQ1LDE4MjUuMDE1Niw4NTcsMTgxMy4wMTU2IiBzdHlsZT0ic3Ryb2tlOiMxODE4MTg7c3Ryb2tlLXdpZHRoOjAuNTsiLz48cG9seWdvbiBmaWxsPSIjRjFGMUYxIiBwb2ludHM9Ijc1Mi41LDE4NDMuMDE1Niw3NjQuNSwxODU1LjAxNTYsNzUyLjUsMTg2Ny4wMTU2LDc0MC41LDE4NTUuMDE1Niw3NTIuNSwxODQzLjAxNTYiIHN0eWxlPSJzdHJva2U6IzE4MTgxODtzdHJva2Utd2lkdGg6MC41OyIvPjxwb2x5Z29uIGZpbGw9IiNGMUYxRjEiIHBvaW50cz0iNjM0Ljc1LDE4NzMuMDE1Niw2NDYuNzUsMTg4NS4wMTU2LDYzNC43NSwxODk3LjAxNTYsNjIyLjc1LDE4ODUuMDE1Niw2MzQuNzUsMTg3My4wMTU2IiBzdHlsZT0ic3Ryb2tlOiMxODE4MTg7c3Ryb2tlLXdpZHRoOjAuNTsiLz48cG9seWdvbiBmaWxsPSIjRjFGMUYxIiBwb2ludHM9IjU5OC43NSw1NjMuMDQ2OSw2NzAuNzUsNTYzLjA0NjksNjgyLjc1LDU3NS4wNDY5LDY3MC43NSw1ODcuMDQ2OSw1OTguNzUsNTg3LjA0NjksNTg2Ljc1LDU3NS4wNDY5LDU5OC43NSw1NjMuMDQ2OSIgc3R5bGU9InN0cm9rZTojMTgxODE4O3N0cm9rZS13aWR0aDowLjU7Ii8+PHRleHQgZmlsbD0iIzAwMDAwMCIgZm9udC1mYW1pbHk9InNhbnMtc2VyaWYiIGZvbnQtc2l6ZT0iMTEiIGxlbmd0aEFkanVzdD0ic3BhY2luZyIgdGV4dExlbmd0aD0iMTEiIHg9IjYzOC43NSIgeT0iNTk3LjQ0NTMiPiYjMjYxNTk7PC90ZXh0Pjx0ZXh0IGZpbGw9IiMwMDAwMDAiIGZvbnQtZmFtaWx5PSJzYW5zLXNlcmlmIiBmb250LXNpemU9IjExIiBsZW5ndGhBZGp1c3Q9InNwYWNpbmciIHRleHRMZW5ndGg9IjcyIiB4PSI1OTguNzUiIHk9IjU3OS41NTg2Ij4mIzE5OTc4OyYjMjAyNTY7JiMzODQzMTsmIzIxMDE1OyYjMzg3NTA7JiMzMTM1NDs/PC90ZXh0Pjxwb2x5Z29uIGZpbGw9IiNGMUYxRjEiIHBvaW50cz0iNjM0Ljc1LDE5MTcuMDE1Niw2NDYuNzUsMTkyOS4wMTU2LDYzNC43NSwxOTQxLjAxNTYsNjIyLjc1LDE5MjkuMDE1Niw2MzQuNzUsMTkxNy4wMTU2IiBzdHlsZT0ic3Ryb2tlOiMxODE4MTg7c3Ryb2tlLXdpZHRoOjAuNTsiLz48cG9seWdvbiBmaWxsPSIjRjFGMUYxIiBwb2ludHM9IjQyNi43NSwxOTQ3LjAxNTYsNDM4Ljc1LDE5NTkuMDE1Niw0MjYuNzUsMTk3MS4wMTU2LDQxNC43NSwxOTU5LjAxNTYsNDI2Ljc1LDE5NDcuMDE1NiIgc3R5bGU9InN0cm9rZTojMTgxODE4O3N0cm9rZS13aWR0aDowLjU7Ii8+PHJlY3QgZmlsbD0iI0YxRjFGMSIgaGVpZ2h0PSIzMi44NDM4IiByeD0iMTIuNSIgcnk9IjEyLjUiIHN0eWxlPSJzdHJva2U6IzE4MTgxODtzdHJva2Utd2lkdGg6MC41OyIgd2lkdGg9IjkyIiB4PSIxMDUzIiB5PSIxNzIuODI4MSIvPjx0ZXh0IGZpbGw9IiMwMDAwMDAiIGZvbnQtZmFtaWx5PSJzYW5zLXNlcmlmIiBmb250LXNpemU9IjEyIiBsZW5ndGhBZGp1c3Q9InNwYWNpbmciIHRleHRMZW5ndGg9IjcyIiB4PSIxMDYzIiB5PSIxOTQuMTcxOSI+JiMzNjg3MzsmIzI1MzIxOyYjMjA4NTQ7JiMyMDE4MjsmIzI1OTkxOyYjMjAyMTQ7PC90ZXh0Pjxwb2x5Z29uIGZpbGw9IiNGMUYxRjEiIHBvaW50cz0iNzQ2Ljg3NSwxOTc3LjAxNTYsNzU4Ljg3NSwxOTg5LjAxNTYsNzQ2Ljg3NSwyMDAxLjAxNTYsNzM0Ljg3NSwxOTg5LjAxNTYsNzQ2Ljg3NSwxOTc3LjAxNTYiIHN0eWxlPSJzdHJva2U6IzE4MTgxODtzdHJva2Utd2lkdGg6MC41OyIvPjx0ZXh0IGZpbGw9IiMwMDAwMDAiIGZvbnQtZmFtaWx5PSJzYW5zLXNlcmlmIiBmb250LXNpemU9IjExIiBsZW5ndGhBZGp1c3Q9InNwYWNpbmciIHRleHRMZW5ndGg9IjEyIiB4PSI3NTguODc1IiB5PSIxOTg3LjY0MDYiPmlmPC90ZXh0PjxsaW5lIHN0eWxlPSJzdHJva2U6IzE4MTgxODtzdHJva2Utd2lkdGg6MS4wOyIgeDE9Ijc0Ni44NzUiIHgyPSI3NDYuODc1IiB5MT0iNjUuOTg0NCIgeTI9Ijg1Ljk4NDQiLz48cG9seWdvbiBmaWxsPSIjMTgxODE4IiBwb2ludHM9Ijc0Mi44NzUsNzUuOTg0NCw3NDYuODc1LDg1Ljk4NDQsNzUwLjg3NSw3NS45ODQ0LDc0Ni44NzUsNzkuOTg0NCIgc3R5bGU9InN0cm9rZTojMTgxODE4O3N0cm9rZS13aWR0aDoxLjA7Ii8+PGxpbmUgc3R5bGU9InN0cm9rZTojMTgxODE4O3N0cm9rZS13aWR0aDoxLjA7IiB4MT0iNDI2Ljc1IiB4Mj0iNDI2Ljc1IiB5MT0iMjQ5LjY3MTkiIHkyPSIyNzMuNjcxOSIvPjxwb2x5Z29uIGZpbGw9IiMxODE4MTgiIHBvaW50cz0iNDIyLjc1LDI2My42NzE5LDQyNi43NSwyNzMuNjcxOSw0MzAuNzUsMjYzLjY3MTksNDI2Ljc1LDI2Ny42NzE5IiBzdHlsZT0ic3Ryb2tlOiMxODE4MTg7c3Ryb2tlLXdpZHRoOjEuMDsiLz48bGluZSBzdHlsZT0ic3Ryb2tlOiMxODE4MTg7c3Ryb2tlLXdpZHRoOjEuMDsiIHgxPSI0ODUuNzUiIHgyPSI1MDYuNzUiIHkxPSIyMzcuNjcxOSIgeTI9IjIzNy42NzE5Ii8+PHBvbHlnb24gZmlsbD0iIzE4MTgxOCIgcG9pbnRzPSI1MDIuNzUsMjgwLjA5MzgsNTA2Ljc1LDI5MC4wOTM4LDUxMC43NSwyODAuMDkzOCw1MDYuNzUsMjg0LjA5MzgiIHN0eWxlPSJzdHJva2U6IzE4MTgxODtzdHJva2Utd2lkdGg6MS4wOyIvPjxsaW5lIHN0eWxlPSJzdHJva2U6IzE4MTgxODtzdHJva2Utd2lkdGg6MS4wOyIgeDE9IjUwNi43NSIgeDI9IjUwNi43NSIgeTE9IjIzNy42NzE5IiB5Mj0iMzM4LjUxNTYiLz48bGluZSBzdHlsZT0ic3Ryb2tlOiMxODE4MTg7c3Ryb2tlLXdpZHRoOjEuMDsiIHgxPSI1MDYuNzUiIHgyPSI0MzguNzUiIHkxPSIzMzguNTE1NiIgeTI9IjMzOC41MTU2Ii8+PHBvbHlnb24gZmlsbD0iIzE4MTgxOCIgcG9pbnRzPSI0NDguNzUsMzM0LjUxNTYsNDM4Ljc1LDMzOC41MTU2LDQ0OC43NSwzNDIuNTE1Niw0NDQuNzUsMzM4LjUxNTYiIHN0eWxlPSJzdHJva2U6IzE4MTgxODtzdHJva2Utd2lkdGg6MS4wOyIvPjxsaW5lIHN0eWxlPSJzdHJva2U6IzE4MTgxODtzdHJva2Utd2lkdGg6MS4wOyIgeDE9IjQyNi43NSIgeDI9IjQyNi43NSIgeTE9IjMwNi41MTU2IiB5Mj0iMzI2LjUxNTYiLz48cG9seWdvbiBmaWxsPSIjMTgxODE4IiBwb2ludHM9IjQyMi43NSwzMTYuNTE1Niw0MjYuNzUsMzI2LjUxNTYsNDMwLjc1LDMxNi41MTU2LDQyNi43NSwzMjAuNTE1NiIgc3R5bGU9InN0cm9rZTojMTgxODE4O3N0cm9rZS13aWR0aDoxLjA7Ii8+PGxpbmUgc3R5bGU9InN0cm9rZTojMTgxODE4O3N0cm9rZS13aWR0aDoxLjA7IiB4MT0iNDI2Ljc1IiB4Mj0iNDI2Ljc1IiB5MT0iMjA1LjY3MTkiIHkyPSIyMjUuNjcxOSIvPjxwb2x5Z29uIGZpbGw9IiMxODE4MTgiIHBvaW50cz0iNDIyLjc1LDIxNS42NzE5LDQyNi43NSwyMjUuNjcxOSw0MzAuNzUsMjE1LjY3MTksNDI2Ljc1LDIxOS42NzE5IiBzdHlsZT0ic3Ryb2tlOiMxODE4MTg7c3Ryb2tlLXdpZHRoOjEuMDsiLz48bGluZSBzdHlsZT0ic3Ryb2tlOiMxODE4MTg7c3Ryb2tlLXdpZHRoOjEuMDsiIHgxPSI0MjYuNzUiIHgyPSI0MjYuNzUiIHkxPSIzNTAuNTE1NiIgeTI9IjM3MC41MTU2Ii8+PHBvbHlnb24gZmlsbD0iIzE4MTgxOCIgcG9pbnRzPSI0MjIuNzUsMzYwLjUxNTYsNDI2Ljc1LDM3MC41MTU2LDQzMC43NSwzNjAuNTE1Niw0MjYuNzUsMzY0LjUxNTYiIHN0eWxlPSJzdHJva2U6IzE4MTgxODtzdHJva2Utd2lkdGg6MS4wOyIvPjxsaW5lIHN0eWxlPSJzdHJva2U6IzE4MTgxODtzdHJva2Utd2lkdGg6MS4wOyIgeDE9IjEyMC43NSIgeDI9IjEyMC43NSIgeTE9IjQ5MC4yMDMxIiB5Mj0iNTEwLjIwMzEiLz48cG9seWdvbiBmaWxsPSIjMTgxODE4IiBwb2ludHM9IjExNi43NSw1MDAuMjAzMSwxMjAuNzUsNTEwLjIwMzEsMTI0Ljc1LDUwMC4yMDMxLDEyMC43NSw1MDQuMjAzMSIgc3R5bGU9InN0cm9rZTojMTgxODE4O3N0cm9rZS13aWR0aDoxLjA7Ii8+PGxpbmUgc3R5bGU9InN0cm9rZTojMTgxODE4O3N0cm9rZS13aWR0aDoxLjA7IiB4MT0iMTM0IiB4Mj0iMTM0IiB5MT0iNjYzLjg5MDYiIHkyPSI2OTguODkwNiIvPjxwb2x5Z29uIGZpbGw9IiMxODE4MTgiIHBvaW50cz0iMTMwLDY4OC44OTA2LDEzNCw2OTguODkwNiwxMzgsNjg4Ljg5MDYsMTM0LDY5Mi44OTA2IiBzdHlsZT0ic3Ryb2tlOiMxODE4MTg7c3Ryb2tlLXdpZHRoOjEuMDsiLz48bGluZSBzdHlsZT0ic3Ryb2tlOiMxODE4MTg7c3Ryb2tlLXdpZHRoOjEuMDsiIHgxPSIxMzQiIHgyPSIxMzQiIHkxPSI3MzEuNzM0NCIgeTI9Ijc2Ni43MzQ0Ii8+PHBvbHlnb24gZmlsbD0iIzE4MTgxOCIgcG9pbnRzPSIxMzAsNzU2LjczNDQsMTM0LDc2Ni43MzQ0LDEzOCw3NTYuNzM0NCwxMzQsNzYwLjczNDQiIHN0eWxlPSJzdHJva2U6IzE4MTgxODtzdHJva2Utd2lkdGg6MS4wOyIvPjxsaW5lIHN0eWxlPSJzdHJva2U6IzE4MTgxODtzdHJva2Utd2lkdGg6MS4wOyIgeDE9IjEzNCIgeDI9IjEzNCIgeTE9Ijc5OS41NzgxIiB5Mj0iODM0LjU3ODEiLz48cG9seWdvbiBmaWxsPSIjMTgxODE4IiBwb2ludHM9IjEzMCw4MjQuNTc4MSwxMzQsODM0LjU3ODEsMTM4LDgyNC41NzgxLDEzNCw4MjguNTc4MSIgc3R5bGU9InN0cm9rZTojMTgxODE4O3N0cm9rZS13aWR0aDoxLjA7Ii8+PGxpbmUgc3R5bGU9InN0cm9rZTojMTgxODE4O3N0cm9rZS13aWR0aDoxLjA7IiB4MT0iMTgxIiB4Mj0iMTgxIiB5MT0iOTY5LjI2NTYiIHkyPSIxMDA0LjI2NTYiLz48cG9seWdvbiBmaWxsPSIjMTgxODE4IiBwb2ludHM9IjE3Nyw5OTQuMjY1NiwxODEsMTAwNC4yNjU2LDE4NSw5OTQuMjY1NiwxODEsOTk4LjI2NTYiIHN0eWxlPSJzdHJva2U6IzE4MTgxODtzdHJva2Utd2lkdGg6MS4wOyIvPjxsaW5lIHN0eWxlPSJzdHJva2U6IzE4MTgxODtzdHJva2Utd2lkdGg6MS4wOyIgeDE9Ijk3IiB4Mj0iODciIHkxPSI5MTQuNDIxOSIgeTI9IjkxNC40MjE5Ii8+PGxpbmUgc3R5bGU9InN0cm9rZTojMTgxODE4O3N0cm9rZS13aWR0aDoxLjA7IiB4MT0iODciIHgyPSI4NyIgeTE9IjkxNC40MjE5IiB5Mj0iOTM2LjQyMTkiLz48cG9seWdvbiBmaWxsPSIjMTgxODE4IiBwb2ludHM9IjgzLDkyNi40MjE5LDg3LDkzNi40MjE5LDkxLDkyNi40MjE5LDg3LDkzMC40MjE5IiBzdHlsZT0ic3Ryb2tlOiMxODE4MTg7c3Ryb2tlLXdpZHRoOjEuMDsiLz48bGluZSBzdHlsZT0ic3Ryb2tlOiMxODE4MTg7c3Ryb2tlLXdpZHRoOjEuMDsiIHgxPSIxNzEiIHgyPSIxODEiIHkxPSI5MTQuNDIxOSIgeTI9IjkxNC40MjE5Ii8+PGxpbmUgc3R5bGU9InN0cm9rZTojMTgxODE4O3N0cm9rZS13aWR0aDoxLjA7IiB4MT0iMTgxIiB4Mj0iMTgxIiB5MT0iOTE0LjQyMTkiIHkyPSI5MzYuNDIxOSIvPjxwb2x5Z29uIGZpbGw9IiMxODE4MTgiIHBvaW50cz0iMTc3LDkyNi40MjE5LDE4MSw5MzYuNDIxOSwxODUsOTI2LjQyMTksMTgxLDkzMC40MjE5IiBzdHlsZT0ic3Ryb2tlOiMxODE4MTg7c3Ryb2tlLXdpZHRoOjEuMDsiLz48bGluZSBzdHlsZT0ic3Ryb2tlOiMxODE4MTg7c3Ryb2tlLXdpZHRoOjEuMDsiIHgxPSI4NyIgeDI9Ijg3IiB5MT0iOTY5LjI2NTYiIHkyPSIxMDU1LjEwOTQiLz48bGluZSBzdHlsZT0ic3Ryb2tlOiMxODE4MTg7c3Ryb2tlLXdpZHRoOjEuMDsiIHgxPSI4NyIgeDI9IjEyMiIgeTE9IjEwNTUuMTA5NCIgeTI9IjEwNTUuMTA5NCIvPjxwb2x5Z29uIGZpbGw9IiMxODE4MTgiIHBvaW50cz0iMTEyLDEwNTEuMTA5NCwxMjIsMTA1NS4xMDk0LDExMiwxMDU5LjEwOTQsMTE2LDEwNTUuMTA5NCIgc3R5bGU9InN0cm9rZTojMTgxODE4O3N0cm9rZS13aWR0aDoxLjA7Ii8+PGxpbmUgc3R5bGU9InN0cm9rZTojMTgxODE4O3N0cm9rZS13aWR0aDoxLjA7IiB4MT0iMTgxIiB4Mj0iMTgxIiB5MT0iMTAzNy4xMDk0IiB5Mj0iMTA1NS4xMDk0Ii8+PGxpbmUgc3R5bGU9InN0cm9rZTojMTgxODE4O3N0cm9rZS13aWR0aDoxLjA7IiB4MT0iMTgxIiB4Mj0iMTQ2IiB5MT0iMTA1NS4xMDk0IiB5Mj0iMTA1NS4xMDk0Ii8+PHBvbHlnb24gZmlsbD0iIzE4MTgxOCIgcG9pbnRzPSIxNTYsMTA1MS4xMDk0LDE0NiwxMDU1LjEwOTQsMTU2LDEwNTkuMTA5NCwxNTIsMTA1NS4xMDk0IiBzdHlsZT0ic3Ryb2tlOiMxODE4MTg7c3Ryb2tlLXdpZHRoOjEuMDsiLz48bGluZSBzdHlsZT0ic3Ryb2tlOiMxODE4MTg7c3Ryb2tlLXdpZHRoOjEuMDsiIHgxPSIxMzQiIHgyPSIxMzQiIHkxPSI4NjcuNDIxOSIgeTI9IjkwMi40MjE5Ii8+PHBvbHlnb24gZmlsbD0iIzE4MTgxOCIgcG9pbnRzPSIxMzAsODkyLjQyMTksMTM0LDkwMi40MjE5LDEzOCw4OTIuNDIxOSwxMzQsODk2LjQyMTkiIHN0eWxlPSJzdHJva2U6IzE4MTgxODtzdHJva2Utd2lkdGg6MS4wOyIvPjxsaW5lIHN0eWxlPSJzdHJva2U6IzE4MTgxODtzdHJva2Utd2lkdGg6MS4wOyIgeDE9IjM0MyIgeDI9IjM0MyIgeTE9IjY2My44OTA2IiB5Mj0iNjk4Ljg5MDYiLz48cG9seWdvbiBmaWxsPSIjMTgxODE4IiBwb2ludHM9IjMzOSw2ODguODkwNiwzNDMsNjk4Ljg5MDYsMzQ3LDY4OC44OTA2LDM0Myw2OTIuODkwNiIgc3R5bGU9InN0cm9rZTojMTgxODE4O3N0cm9rZS13aWR0aDoxLjA7Ii8+PGxpbmUgc3R5bGU9InN0cm9rZTojMTgxODE4O3N0cm9rZS13aWR0aDoxLjA7IiB4MT0iNDA5IiB4Mj0iNDA5IiB5MT0iODMzLjU3ODEiIHkyPSI4NjguNTc4MSIvPjxwb2x5Z29uIGZpbGw9IiMxODE4MTgiIHBvaW50cz0iNDA1LDg1OC41NzgxLDQwOSw4NjguNTc4MSw0MTMsODU4LjU3ODEsNDA5LDg2Mi41NzgxIiBzdHlsZT0ic3Ryb2tlOiMxODE4MTg7c3Ryb2tlLXdpZHRoOjEuMDsiLz48bGluZSBzdHlsZT0ic3Ryb2tlOiMxODE4MTg7c3Ryb2tlLXdpZHRoOjEuMDsiIHgxPSI0MDkiIHgyPSI0MDkiIHkxPSIxMDE3LjI2NTYiIHkyPSIxMDUyLjI2NTYiLz48cG9seWdvbiBmaWxsPSIjMTgxODE4IiBwb2ludHM9IjQwNSwxMDQyLjI2NTYsNDA5LDEwNTIuMjY1Niw0MTMsMTA0Mi4yNjU2LDQwOSwxMDQ2LjI2NTYiIHN0eWxlPSJzdHJva2U6IzE4MTgxODtzdHJva2Utd2lkdGg6MS4wOyIvPjxsaW5lIHN0eWxlPSJzdHJva2U6IzE4MTgxODtzdHJva2Utd2lkdGg6MS4wOyIgeDE9IjQwOSIgeDI9IjQwOSIgeTE9IjExNDQuMTA5NCIgeTI9IjExNjguMTA5NCIvPjxwb2x5Z29uIGZpbGw9IiMxODE4MTgiIHBvaW50cz0iNDA1LDExNTguMTA5NCw0MDksMTE2OC4xMDk0LDQxMywxMTU4LjEwOTQsNDA5LDExNjIuMTA5NCIgc3R5bGU9InN0cm9rZTojMTgxODE4O3N0cm9rZS13aWR0aDoxLjA7Ii8+PGxpbmUgc3R5bGU9InN0cm9rZTojMTgxODE4O3N0cm9rZS13aWR0aDoxLjA7IiB4MT0iNDY4IiB4Mj0iNDg5IiB5MT0iMTEzMi4xMDk0IiB5Mj0iMTEzMi4xMDk0Ii8+PHBvbHlnb24gZmlsbD0iIzE4MTgxOCIgcG9pbnRzPSI0ODUsMTE3NC41MzEzLDQ4OSwxMTg0LjUzMTMsNDkzLDExNzQuNTMxMyw0ODksMTE3OC41MzEzIiBzdHlsZT0ic3Ryb2tlOiMxODE4MTg7c3Ryb2tlLXdpZHRoOjEuMDsiLz48bGluZSBzdHlsZT0ic3Ryb2tlOiMxODE4MTg7c3Ryb2tlLXdpZHRoOjEuMDsiIHgxPSI0ODkiIHgyPSI0ODkiIHkxPSIxMTMyLjEwOTQiIHkyPSIxMjM2Ljk1MzEiLz48bGluZSBzdHlsZT0ic3Ryb2tlOiMxODE4MTg7c3Ryb2tlLXdpZHRoOjEuMDsiIHgxPSI0ODkiIHgyPSI0MjEiIHkxPSIxMjM2Ljk1MzEiIHkyPSIxMjM2Ljk1MzEiLz48cG9seWdvbiBmaWxsPSIjMTgxODE4IiBwb2ludHM9IjQzMSwxMjMyLjk1MzEsNDIxLDEyMzYuOTUzMSw0MzEsMTI0MC45NTMxLDQyNywxMjM2Ljk1MzEiIHN0eWxlPSJzdHJva2U6IzE4MTgxODtzdHJva2Utd2lkdGg6MS4wOyIvPjxsaW5lIHN0eWxlPSJzdHJva2U6IzE4MTgxODtzdHJva2Utd2lkdGg6MS4wOyIgeDE9IjQwOSIgeDI9IjQwOSIgeTE9IjEyMDAuOTUzMSIgeTI9IjEyMjQuOTUzMSIvPjxwb2x5Z29uIGZpbGw9IiMxODE4MTgiIHBvaW50cz0iNDA1LDEyMTQuOTUzMSw0MDksMTIyNC45NTMxLDQxMywxMjE0Ljk1MzEsNDA5LDEyMTguOTUzMSIgc3R5bGU9InN0cm9rZTojMTgxODE4O3N0cm9rZS13aWR0aDoxLjA7Ii8+PGxpbmUgc3R5bGU9InN0cm9rZTojMTgxODE4O3N0cm9rZS13aWR0aDoxLjA7IiB4MT0iNDA5IiB4Mj0iNDA5IiB5MT0iMTA4NS4xMDk0IiB5Mj0iMTEyMC4xMDk0Ii8+PHBvbHlnb24gZmlsbD0iIzE4MTgxOCIgcG9pbnRzPSI0MDUsMTExMC4xMDk0LDQwOSwxMTIwLjEwOTQsNDEzLDExMTAuMTA5NCw0MDksMTExNC4xMDk0IiBzdHlsZT0ic3Ryb2tlOiMxODE4MTg7c3Ryb2tlLXdpZHRoOjEuMDsiLz48bGluZSBzdHlsZT0ic3Ryb2tlOiMxODE4MTg7c3Ryb2tlLXdpZHRoOjEuMDsiIHgxPSI0MDkiIHgyPSI0MDkiIHkxPSIxMjQ4Ljk1MzEiIHkyPSIxMjgzLjk1MzEiLz48cG9seWdvbiBmaWxsPSIjMTgxODE4IiBwb2ludHM9IjQwNSwxMjczLjk1MzEsNDA5LDEyODMuOTUzMSw0MTMsMTI3My45NTMxLDQwOSwxMjc3Ljk1MzEiIHN0eWxlPSJzdHJva2U6IzE4MTgxODtzdHJva2Utd2lkdGg6MS4wOyIvPjxsaW5lIHN0eWxlPSJzdHJva2U6IzE4MTgxODtzdHJva2Utd2lkdGg6MS4wOyIgeDE9IjQwOSIgeDI9IjQwOSIgeTE9IjEzMTYuNzk2OSIgeTI9IjEzNTEuNzk2OSIvPjxwb2x5Z29uIGZpbGw9IiMxODE4MTgiIHBvaW50cz0iNDA1LDEzNDEuNzk2OSw0MDksMTM1MS43OTY5LDQxMywxMzQxLjc5NjksNDA5LDEzNDUuNzk2OSIgc3R5bGU9InN0cm9rZTojMTgxODE4O3N0cm9rZS13aWR0aDoxLjA7Ii8+PGxpbmUgc3R5bGU9InN0cm9rZTojMTgxODE4O3N0cm9rZS13aWR0aDoxLjA7IiB4MT0iNDU2IiB4Mj0iNDU2IiB5MT0iMTQ4Mi40ODQ0IiB5Mj0iMTUxNi40ODQ0Ii8+PHBvbHlnb24gZmlsbD0iIzE4MTgxOCIgcG9pbnRzPSI0NTIsMTUwNi40ODQ0LDQ1NiwxNTE2LjQ4NDQsNDYwLDE1MDYuNDg0NCw0NTYsMTUxMC40ODQ0IiBzdHlsZT0ic3Ryb2tlOiMxODE4MTg7c3Ryb2tlLXdpZHRoOjEuMDsiLz48bGluZSBzdHlsZT0ic3Ryb2tlOiMxODE4MTg7c3Ryb2tlLXdpZHRoOjEuMDsiIHgxPSIzNzIiIHgyPSIzNjIiIHkxPSIxNDI3LjY0MDYiIHkyPSIxNDI3LjY0MDYiLz48bGluZSBzdHlsZT0ic3Ryb2tlOiMxODE4MTg7c3Ryb2tlLXdpZHRoOjEuMDsiIHgxPSIzNjIiIHgyPSIzNjIiIHkxPSIxNDI3LjY0MDYiIHkyPSIxNDQ5LjY0MDYiLz48cG9seWdvbiBmaWxsPSIjMTgxODE4IiBwb2ludHM9IjM1OCwxNDM5LjY0MDYsMzYyLDE0NDkuNjQwNiwzNjYsMTQzOS42NDA2LDM2MiwxNDQzLjY0MDYiIHN0eWxlPSJzdHJva2U6IzE4MTgxODtzdHJva2Utd2lkdGg6MS4wOyIvPjxsaW5lIHN0eWxlPSJzdHJva2U6IzE4MTgxODtzdHJva2Utd2lkdGg6MS4wOyIgeDE9IjQ0NiIgeDI9IjQ1NiIgeTE9IjE0MjcuNjQwNiIgeTI9IjE0MjcuNjQwNiIvPjxsaW5lIHN0eWxlPSJzdHJva2U6IzE4MTgxODtzdHJva2Utd2lkdGg6MS4wOyIgeDE9IjQ1NiIgeDI9IjQ1NiIgeTE9IjE0MjcuNjQwNiIgeTI9IjE0NDkuNjQwNiIvPjxwb2x5Z29uIGZpbGw9IiMxODE4MTgiIHBvaW50cz0iNDUyLDE0MzkuNjQwNiw0NTYsMTQ0OS42NDA2LDQ2MCwxNDM5LjY0MDYsNDU2LDE0NDMuNjQwNiIgc3R5bGU9InN0cm9rZTojMTgxODE4O3N0cm9rZS13aWR0aDoxLjA7Ii8+PGxpbmUgc3R5bGU9InN0cm9rZTojMTgxODE4O3N0cm9rZS13aWR0aDoxLjA7IiB4MT0iMzYyIiB4Mj0iMzYyIiB5MT0iMTQ4Mi40ODQ0IiB5Mj0iMTU2Ny4zMjgxIi8+PGxpbmUgc3R5bGU9InN0cm9rZTojMTgxODE4O3N0cm9rZS13aWR0aDoxLjA7IiB4MT0iMzYyIiB4Mj0iMzk3IiB5MT0iMTU2Ny4zMjgxIiB5Mj0iMTU2Ny4zMjgxIi8+PHBvbHlnb24gZmlsbD0iIzE4MTgxOCIgcG9pbnRzPSIzODcsMTU2My4zMjgxLDM5NywxNTY3LjMyODEsMzg3LDE1NzEuMzI4MSwzOTEsMTU2Ny4zMjgxIiBzdHlsZT0ic3Ryb2tlOiMxODE4MTg7c3Ryb2tlLXdpZHRoOjEuMDsiLz48bGluZSBzdHlsZT0ic3Ryb2tlOiMxODE4MTg7c3Ryb2tlLXdpZHRoOjEuMDsiIHgxPSI0NTYiIHgyPSI0NTYiIHkxPSIxNTQ5LjMyODEiIHkyPSIxNTY3LjMyODEiLz48bGluZSBzdHlsZT0ic3Ryb2tlOiMxODE4MTg7c3Ryb2tlLXdpZHRoOjEuMDsiIHgxPSI0NTYiIHgyPSI0MjEiIHkxPSIxNTY3LjMyODEiIHkyPSIxNTY3LjMyODEiLz48cG9seWdvbiBmaWxsPSIjMTgxODE4IiBwb2ludHM9IjQzMSwxNTYzLjMyODEsNDIxLDE1NjcuMzI4MSw0MzEsMTU3MS4zMjgxLDQyNywxNTY3LjMyODEiIHN0eWxlPSJzdHJva2U6IzE4MTgxODtzdHJva2Utd2lkdGg6MS4wOyIvPjxsaW5lIHN0eWxlPSJzdHJva2U6IzE4MTgxODtzdHJva2Utd2lkdGg6MS4wOyIgeDE9IjQwOSIgeDI9IjQwOSIgeTE9IjEzODQuNjQwNiIgeTI9IjE0MTUuNjQwNiIvPjxwb2x5Z29uIGZpbGw9IiMxODE4MTgiIHBvaW50cz0iNDA1LDE0MDUuNjQwNiw0MDksMTQxNS42NDA2LDQxMywxNDA1LjY0MDYsNDA5LDE0MDkuNjQwNiIgc3R5bGU9InN0cm9rZTojMTgxODE4O3N0cm9rZS13aWR0aDoxLjA7Ii8+PGxpbmUgc3R5bGU9InN0cm9rZTojMTgxODE4O3N0cm9rZS13aWR0aDoxLjA7IiB4MT0iNDA5IiB4Mj0iNDA5IiB5MT0iOTYwLjQyMTkiIHkyPSI5ODQuNDIxOSIvPjxwb2x5Z29uIGZpbGw9IiMxODE4MTgiIHBvaW50cz0iNDA1LDk3NC40MjE5LDQwOSw5ODQuNDIxOSw0MTMsOTc0LjQyMTksNDA5LDk3OC40MjE5IiBzdHlsZT0ic3Ryb2tlOiMxODE4MTg7c3Ryb2tlLXdpZHRoOjEuMDsiLz48bGluZSBzdHlsZT0ic3Ryb2tlOiMxODE4MTg7c3Ryb2tlLXdpZHRoOjEuMDsiIHgxPSI0NjgiIHgyPSI1MTEiIHkxPSI5NDguNDIxOSIgeTI9Ijk0OC40MjE5Ii8+PHBvbHlnb24gZmlsbD0iIzE4MTgxOCIgcG9pbnRzPSI1MDcsMTI3NC4zNzUsNTExLDEyODQuMzc1LDUxNSwxMjc0LjM3NSw1MTEsMTI3OC4zNzUiIHN0eWxlPSJzdHJva2U6IzE4MTgxODtzdHJva2Utd2lkdGg6MS4wOyIvPjxsaW5lIHN0eWxlPSJzdHJva2U6IzE4MTgxODtzdHJva2Utd2lkdGg6MS4wOyIgeDE9IjUxMSIgeDI9IjUxMSIgeTE9Ijk0OC40MjE5IiB5Mj0iMTYxNS4zMjgxIi8+PGxpbmUgc3R5bGU9InN0cm9rZTojMTgxODE4O3N0cm9rZS13aWR0aDoxLjA7IiB4MT0iNTExIiB4Mj0iNDIxIiB5MT0iMTYxNS4zMjgxIiB5Mj0iMTYxNS4zMjgxIi8+PHBvbHlnb24gZmlsbD0iIzE4MTgxOCIgcG9pbnRzPSI0MzEsMTYxMS4zMjgxLDQyMSwxNjE1LjMyODEsNDMxLDE2MTkuMzI4MSw0MjcsMTYxNS4zMjgxIiBzdHlsZT0ic3Ryb2tlOiMxODE4MTg7c3Ryb2tlLXdpZHRoOjEuMDsiLz48bGluZSBzdHlsZT0ic3Ryb2tlOiMxODE4MTg7c3Ryb2tlLXdpZHRoOjEuMDsiIHgxPSI0MDkiIHgyPSI0MDkiIHkxPSIxNTc5LjMyODEiIHkyPSIxNjAzLjMyODEiLz48cG9seWdvbiBmaWxsPSIjMTgxODE4IiBwb2ludHM9IjQwNSwxNTkzLjMyODEsNDA5LDE2MDMuMzI4MSw0MTMsMTU5My4zMjgxLDQwOSwxNTk3LjMyODEiIHN0eWxlPSJzdHJva2U6IzE4MTgxODtzdHJva2Utd2lkdGg6MS4wOyIvPjxsaW5lIHN0eWxlPSJzdHJva2U6IzE4MTgxODtzdHJva2Utd2lkdGg6MS4wOyIgeDE9IjQwOSIgeDI9IjQwOSIgeTE9IjkwMS40MjE5IiB5Mj0iOTM2LjQyMTkiLz48cG9seWdvbiBmaWxsPSIjMTgxODE4IiBwb2ludHM9IjQwNSw5MjYuNDIxOSw0MDksOTM2LjQyMTksNDEzLDkyNi40MjE5LDQwOSw5MzAuNDIxOSIgc3R5bGU9InN0cm9rZTojMTgxODE4O3N0cm9rZS13aWR0aDoxLjA7Ii8+PGxpbmUgc3R5bGU9InN0cm9rZTojMTgxODE4O3N0cm9rZS13aWR0aDoxLjA7IiB4MT0iMzA2IiB4Mj0iMjc3IiB5MT0iNzc4LjczNDQiIHkyPSI3NzguNzM0NCIvPjxsaW5lIHN0eWxlPSJzdHJva2U6IzE4MTgxODtzdHJva2Utd2lkdGg6MS4wOyIgeDE9IjI3NyIgeDI9IjI3NyIgeTE9Ijc3OC43MzQ0IiB5Mj0iODAwLjczNDQiLz48cG9seWdvbiBmaWxsPSIjMTgxODE4IiBwb2ludHM9IjI3Myw3OTAuNzM0NCwyNzcsODAwLjczNDQsMjgxLDc5MC43MzQ0LDI3Nyw3OTQuNzM0NCIgc3R5bGU9InN0cm9rZTojMTgxODE4O3N0cm9rZS13aWR0aDoxLjA7Ii8+PGxpbmUgc3R5bGU9InN0cm9rZTojMTgxODE4O3N0cm9rZS13aWR0aDoxLjA7IiB4MT0iMzgwIiB4Mj0iNDA5IiB5MT0iNzc4LjczNDQiIHkyPSI3NzguNzM0NCIvPjxsaW5lIHN0eWxlPSJzdHJva2U6IzE4MTgxODtzdHJva2Utd2lkdGg6MS4wOyIgeDE9IjQwOSIgeDI9IjQwOSIgeTE9Ijc3OC43MzQ0IiB5Mj0iODAwLjczNDQiLz48cG9seWdvbiBmaWxsPSIjMTgxODE4IiBwb2ludHM9IjQwNSw3OTAuNzM0NCw0MDksODAwLjczNDQsNDEzLDc5MC43MzQ0LDQwOSw3OTQuNzM0NCIgc3R5bGU9InN0cm9rZTojMTgxODE4O3N0cm9rZS13aWR0aDoxLjA7Ii8+PGxpbmUgc3R5bGU9InN0cm9rZTojMTgxODE4O3N0cm9rZS13aWR0aDoxLjA7IiB4MT0iMjc3IiB4Mj0iMjc3IiB5MT0iODMzLjU3ODEiIHkyPSIxNjQ1LjMyODEiLz48bGluZSBzdHlsZT0ic3Ryb2tlOiMxODE4MTg7c3Ryb2tlLXdpZHRoOjEuMDsiIHgxPSIyNzciIHgyPSIzMzEiIHkxPSIxNjQ1LjMyODEiIHkyPSIxNjQ1LjMyODEiLz48cG9seWdvbiBmaWxsPSIjMTgxODE4IiBwb2ludHM9IjMyMSwxNjQxLjMyODEsMzMxLDE2NDUuMzI4MSwzMjEsMTY0OS4zMjgxLDMyNSwxNjQ1LjMyODEiIHN0eWxlPSJzdHJva2U6IzE4MTgxODtzdHJva2Utd2lkdGg6MS4wOyIvPjxsaW5lIHN0eWxlPSJzdHJva2U6IzE4MTgxODtzdHJva2Utd2lkdGg6MS4wOyIgeDE9IjQwOSIgeDI9IjQwOSIgeTE9IjE2MjcuMzI4MSIgeTI9IjE2NDUuMzI4MSIvPjxsaW5lIHN0eWxlPSJzdHJva2U6IzE4MTgxODtzdHJva2Utd2lkdGg6MS4wOyIgeDE9IjQwOSIgeDI9IjM1NSIgeTE9IjE2NDUuMzI4MSIgeTI9IjE2NDUuMzI4MSIvPjxwb2x5Z29uIGZpbGw9IiMxODE4MTgiIHBvaW50cz0iMzY1LDE2NDEuMzI4MSwzNTUsMTY0NS4zMjgxLDM2NSwxNjQ5LjMyODEsMzYxLDE2NDUuMzI4MSIgc3R5bGU9InN0cm9rZTojMTgxODE4O3N0cm9rZS13aWR0aDoxLjA7Ii8+PGxpbmUgc3R5bGU9InN0cm9rZTojMTgxODE4O3N0cm9rZS13aWR0aDoxLjA7IiB4MT0iMzQzIiB4Mj0iMzQzIiB5MT0iNzMxLjczNDQiIHkyPSI3NjYuNzM0NCIvPjxwb2x5Z29uIGZpbGw9IiMxODE4MTgiIHBvaW50cz0iMzM5LDc1Ni43MzQ0LDM0Myw3NjYuNzM0NCwzNDcsNzU2LjczNDQsMzQzLDc2MC43MzQ0IiBzdHlsZT0ic3Ryb2tlOiMxODE4MTg7c3Ryb2tlLXdpZHRoOjEuMDsiLz48bGluZSBzdHlsZT0ic3Ryb2tlOiMxODE4MTg7c3Ryb2tlLXdpZHRoOjEuMDsiIHgxPSIyMDEuNSIgeDI9IjEzNCIgeTE9IjYwOS4wNDY5IiB5Mj0iNjA5LjA0NjkiLz48bGluZSBzdHlsZT0ic3Ryb2tlOiMxODE4MTg7c3Ryb2tlLXdpZHRoOjEuMDsiIHgxPSIxMzQiIHgyPSIxMzQiIHkxPSI2MDkuMDQ2OSIgeTI9IjYzMS4wNDY5Ii8+PHBvbHlnb24gZmlsbD0iIzE4MTgxOCIgcG9pbnRzPSIxMzAsNjIxLjA0NjksMTM0LDYzMS4wNDY5LDEzOCw2MjEuMDQ2OSwxMzQsNjI1LjA0NjkiIHN0eWxlPSJzdHJva2U6IzE4MTgxODtzdHJva2Utd2lkdGg6MS4wOyIvPjxsaW5lIHN0eWxlPSJzdHJva2U6IzE4MTgxODtzdHJva2Utd2lkdGg6MS4wOyIgeDE9IjI3NS41IiB4Mj0iMzQzIiB5MT0iNjA5LjA0NjkiIHkyPSI2MDkuMDQ2OSIvPjxsaW5lIHN0eWxlPSJzdHJva2U6IzE4MTgxODtzdHJva2Utd2lkdGg6MS4wOyIgeDE9IjM0MyIgeDI9IjM0MyIgeTE9IjYwOS4wNDY5IiB5Mj0iNjMxLjA0NjkiLz48cG9seWdvbiBmaWxsPSIjMTgxODE4IiBwb2ludHM9IjMzOSw2MjEuMDQ2OSwzNDMsNjMxLjA0NjksMzQ3LDYyMS4wNDY5LDM0Myw2MjUuMDQ2OSIgc3R5bGU9InN0cm9rZTojMTgxODE4O3N0cm9rZS13aWR0aDoxLjA7Ii8+PGxpbmUgc3R5bGU9InN0cm9rZTojMTgxODE4O3N0cm9rZS13aWR0aDoxLjA7IiB4MT0iMTM0IiB4Mj0iMTM0IiB5MT0iMTA2Ny4xMDk0IiB5Mj0iMTY3NS4zMjgxIi8+PGxpbmUgc3R5bGU9InN0cm9rZTojMTgxODE4O3N0cm9rZS13aWR0aDoxLjA7IiB4MT0iMTM0IiB4Mj0iMjI2LjUiIHkxPSIxNjc1LjMyODEiIHkyPSIxNjc1LjMyODEiLz48cG9seWdvbiBmaWxsPSIjMTgxODE4IiBwb2ludHM9IjIxNi41LDE2NzEuMzI4MSwyMjYuNSwxNjc1LjMyODEsMjE2LjUsMTY3OS4zMjgxLDIyMC41LDE2NzUuMzI4MSIgc3R5bGU9InN0cm9rZTojMTgxODE4O3N0cm9rZS13aWR0aDoxLjA7Ii8+PGxpbmUgc3R5bGU9InN0cm9rZTojMTgxODE4O3N0cm9rZS13aWR0aDoxLjA7IiB4MT0iMzQzIiB4Mj0iMzQzIiB5MT0iMTY1Ny4zMjgxIiB5Mj0iMTY3NS4zMjgxIi8+PGxpbmUgc3R5bGU9InN0cm9rZTojMTgxODE4O3N0cm9rZS13aWR0aDoxLjA7IiB4MT0iMzQzIiB4Mj0iMjUwLjUiIHkxPSIxNjc1LjMyODEiIHkyPSIxNjc1LjMyODEiLz48cG9seWdvbiBmaWxsPSIjMTgxODE4IiBwb2ludHM9IjI2MC41LDE2NzEuMzI4MSwyNTAuNSwxNjc1LjMyODEsMjYwLjUsMTY3OS4zMjgxLDI1Ni41LDE2NzUuMzI4MSIgc3R5bGU9InN0cm9rZTojMTgxODE4O3N0cm9rZS13aWR0aDoxLjA7Ii8+PGxpbmUgc3R5bGU9InN0cm9rZTojMTgxODE4O3N0cm9rZS13aWR0aDoxLjA7IiB4MT0iODMuNzUiIHgyPSIzMyIgeTE9IjU3NS4wNDY5IiB5Mj0iNTc1LjA0NjkiLz48bGluZSBzdHlsZT0ic3Ryb2tlOiMxODE4MTg7c3Ryb2tlLXdpZHRoOjEuMDsiIHgxPSIzMyIgeDI9IjMzIiB5MT0iNTc1LjA0NjkiIHkyPSI1OTcuMDQ2OSIvPjxwb2x5Z29uIGZpbGw9IiMxODE4MTgiIHBvaW50cz0iMjksNTg3LjA0NjksMzMsNTk3LjA0NjksMzcsNTg3LjA0NjksMzMsNTkxLjA0NjkiIHN0eWxlPSJzdHJva2U6IzE4MTgxODtzdHJva2Utd2lkdGg6MS4wOyIvPjxsaW5lIHN0eWxlPSJzdHJva2U6IzE4MTgxODtzdHJva2Utd2lkdGg6MS4wOyIgeDE9IjE1Ny43NSIgeDI9IjIzOC41IiB5MT0iNTc1LjA0NjkiIHkyPSI1NzUuMDQ2OSIvPjxsaW5lIHN0eWxlPSJzdHJva2U6IzE4MTgxODtzdHJva2Utd2lkdGg6MS4wOyIgeDE9IjIzOC41IiB4Mj0iMjM4LjUiIHkxPSI1NzUuMDQ2OSIgeTI9IjU5Ny4wNDY5Ii8+PHBvbHlnb24gZmlsbD0iIzE4MTgxOCIgcG9pbnRzPSIyMzQuNSw1ODcuMDQ2OSwyMzguNSw1OTcuMDQ2OSwyNDIuNSw1ODcuMDQ2OSwyMzguNSw1OTEuMDQ2OSIgc3R5bGU9InN0cm9rZTojMTgxODE4O3N0cm9rZS13aWR0aDoxLjA7Ii8+PGxpbmUgc3R5bGU9InN0cm9rZTojMTgxODE4O3N0cm9rZS13aWR0aDoxLjA7IiB4MT0iMzMiIHgyPSIzMyIgeTE9IjYyOS44OTA2IiB5Mj0iMTcwNS4zMjgxIi8+PGxpbmUgc3R5bGU9InN0cm9rZTojMTgxODE4O3N0cm9rZS13aWR0aDoxLjA7IiB4MT0iMzMiIHgyPSIxMDguNzUiIHkxPSIxNzA1LjMyODEiIHkyPSIxNzA1LjMyODEiLz48cG9seWdvbiBmaWxsPSIjMTgxODE4IiBwb2ludHM9Ijk4Ljc1LDE3MDEuMzI4MSwxMDguNzUsMTcwNS4zMjgxLDk4Ljc1LDE3MDkuMzI4MSwxMDIuNzUsMTcwNS4zMjgxIiBzdHlsZT0ic3Ryb2tlOiMxODE4MTg7c3Ryb2tlLXdpZHRoOjEuMDsiLz48bGluZSBzdHlsZT0ic3Ryb2tlOiMxODE4MTg7c3Ryb2tlLXdpZHRoOjEuMDsiIHgxPSIyMzguNSIgeDI9IjIzOC41IiB5MT0iMTY4Ny4zMjgxIiB5Mj0iMTcwNS4zMjgxIi8+PGxpbmUgc3R5bGU9InN0cm9rZTojMTgxODE4O3N0cm9rZS13aWR0aDoxLjA7IiB4MT0iMjM4LjUiIHgyPSIxMzIuNzUiIHkxPSIxNzA1LjMyODEiIHkyPSIxNzA1LjMyODEiLz48cG9seWdvbiBmaWxsPSIjMTgxODE4IiBwb2ludHM9IjE0Mi43NSwxNzAxLjMyODEsMTMyLjc1LDE3MDUuMzI4MSwxNDIuNzUsMTcwOS4zMjgxLDEzOC43NSwxNzA1LjMyODEiIHN0eWxlPSJzdHJva2U6IzE4MTgxODtzdHJva2Utd2lkdGg6MS4wOyIvPjxsaW5lIHN0eWxlPSJzdHJva2U6IzE4MTgxODtzdHJva2Utd2lkdGg6MS4wOyIgeDE9IjEyMC43NSIgeDI9IjEyMC43NSIgeTE9IjU0My4wNDY5IiB5Mj0iNTYzLjA0NjkiLz48cG9seWdvbiBmaWxsPSIjMTgxODE4IiBwb2ludHM9IjExNi43NSw1NTMuMDQ2OSwxMjAuNzUsNTYzLjA0NjksMTI0Ljc1LDU1My4wNDY5LDEyMC43NSw1NTcuMDQ2OSIgc3R5bGU9InN0cm9rZTojMTgxODE4O3N0cm9rZS13aWR0aDoxLjA7Ii8+PGxpbmUgc3R5bGU9InN0cm9rZTojMTgxODE4O3N0cm9rZS13aWR0aDoxLjA7IiB4MT0iNjM0Ljc1IiB4Mj0iNjM0Ljc1IiB5MT0iNDkwLjIwMzEiIHkyPSI1MTAuMjAzMSIvPjxwb2x5Z29uIGZpbGw9IiMxODE4MTgiIHBvaW50cz0iNjMwLjc1LDUwMC4yMDMxLDYzNC43NSw1MTAuMjAzMSw2MzguNzUsNTAwLjIwMzEsNjM0Ljc1LDUwNC4yMDMxIiBzdHlsZT0ic3Ryb2tlOiMxODE4MTg7c3Ryb2tlLXdpZHRoOjEuMDsiLz48bGluZSBzdHlsZT0ic3Ryb2tlOiMxODE4MTg7c3Ryb2tlLXdpZHRoOjEuMDsiIHgxPSI2MzQuNzUiIHgyPSI2MzQuNzUiIHkxPSI2NDMuODkwNiIgeTI9IjY3OC44OTA2Ii8+PHBvbHlnb24gZmlsbD0iIzE4MTgxOCIgcG9pbnRzPSI2MzAuNzUsNjY4Ljg5MDYsNjM0Ljc1LDY3OC44OTA2LDYzOC43NSw2NjguODkwNiw2MzQuNzUsNjcyLjg5MDYiIHN0eWxlPSJzdHJva2U6IzE4MTgxODtzdHJva2Utd2lkdGg6MS4wOyIvPjxsaW5lIHN0eWxlPSJzdHJva2U6IzE4MTgxODtzdHJva2Utd2lkdGg6MS4wOyIgeDE9IjY0OCIgeDI9IjY0OCIgeTE9Ijg0Ny41NzgxIiB5Mj0iODgyLjU3ODEiLz48cG9seWdvbiBmaWxsPSIjMTgxODE4IiBwb2ludHM9IjY0NCw4NzIuNTc4MSw2NDgsODgyLjU3ODEsNjUyLDg3Mi41NzgxLDY0OCw4NzYuNTc4MSIgc3R5bGU9InN0cm9rZTojMTgxODE4O3N0cm9rZS13aWR0aDoxLjA7Ii8+PGxpbmUgc3R5bGU9InN0cm9rZTojMTgxODE4O3N0cm9rZS13aWR0aDoxLjA7IiB4MT0iNjQ4IiB4Mj0iNjQ4IiB5MT0iOTE1LjQyMTkiIHkyPSI5NTAuNDIxOSIvPjxwb2x5Z29uIGZpbGw9IiMxODE4MTgiIHBvaW50cz0iNjQ0LDk0MC40MjE5LDY0OCw5NTAuNDIxOSw2NTIsOTQwLjQyMTksNjQ4LDk0NC40MjE5IiBzdHlsZT0ic3Ryb2tlOiMxODE4MTg7c3Ryb2tlLXdpZHRoOjEuMDsiLz48bGluZSBzdHlsZT0ic3Ryb2tlOiMxODE4MTg7c3Ryb2tlLXdpZHRoOjEuMDsiIHgxPSI2NDgiIHgyPSI2NDgiIHkxPSI5ODMuMjY1NiIgeTI9IjEwMTguMjY1NiIvPjxwb2x5Z29uIGZpbGw9IiMxODE4MTgiIHBvaW50cz0iNjQ0LDEwMDguMjY1Niw2NDgsMTAxOC4yNjU2LDY1MiwxMDA4LjI2NTYsNjQ4LDEwMTIuMjY1NiIgc3R5bGU9InN0cm9rZTojMTgxODE4O3N0cm9rZS13aWR0aDoxLjA7Ii8+PGxpbmUgc3R5bGU9InN0cm9rZTojMTgxODE4O3N0cm9rZS13aWR0aDoxLjA7IiB4MT0iNjk1IiB4Mj0iNjk1IiB5MT0iMTE1Mi45NTMxIiB5Mj0iMTE4Ny45NTMxIi8+PHBvbHlnb24gZmlsbD0iIzE4MTgxOCIgcG9pbnRzPSI2OTEsMTE3Ny45NTMxLDY5NSwxMTg3Ljk1MzEsNjk5LDExNzcuOTUzMSw2OTUsMTE4MS45NTMxIiBzdHlsZT0ic3Ryb2tlOiMxODE4MTg7c3Ryb2tlLXdpZHRoOjEuMDsiLz48bGluZSBzdHlsZT0ic3Ryb2tlOiMxODE4MTg7c3Ryb2tlLXdpZHRoOjEuMDsiIHgxPSI2MTEiIHgyPSI2MDEiIHkxPSIxMDk4LjEwOTQiIHkyPSIxMDk4LjEwOTQiLz48bGluZSBzdHlsZT0ic3Ryb2tlOiMxODE4MTg7c3Ryb2tlLXdpZHRoOjEuMDsiIHgxPSI2MDEiIHgyPSI2MDEiIHkxPSIxMDk4LjEwOTQiIHkyPSIxMTIwLjEwOTQiLz48cG9seWdvbiBmaWxsPSIjMTgxODE4IiBwb2ludHM9IjU5NywxMTEwLjEwOTQsNjAxLDExMjAuMTA5NCw2MDUsMTExMC4xMDk0LDYwMSwxMTE0LjEwOTQiIHN0eWxlPSJzdHJva2U6IzE4MTgxODtzdHJva2Utd2lkdGg6MS4wOyIvPjxsaW5lIHN0eWxlPSJzdHJva2U6IzE4MTgxODtzdHJva2Utd2lkdGg6MS4wOyIgeDE9IjY4NSIgeDI9IjY5NSIgeTE9IjEwOTguMTA5NCIgeTI9IjEwOTguMTA5NCIvPjxsaW5lIHN0eWxlPSJzdHJva2U6IzE4MTgxODtzdHJva2Utd2lkdGg6MS4wOyIgeDE9IjY5NSIgeDI9IjY5NSIgeTE9IjEwOTguMTA5NCIgeTI9IjExMjAuMTA5NCIvPjxwb2x5Z29uIGZpbGw9IiMxODE4MTgiIHBvaW50cz0iNjkxLDExMTAuMTA5NCw2OTUsMTEyMC4xMDk0LDY5OSwxMTEwLjEwOTQsNjk1LDExMTQuMTA5NCIgc3R5bGU9InN0cm9rZTojMTgxODE4O3N0cm9rZS13aWR0aDoxLjA7Ii8+PGxpbmUgc3R5bGU9InN0cm9rZTojMTgxODE4O3N0cm9rZS13aWR0aDoxLjA7IiB4MT0iNjAxIiB4Mj0iNjAxIiB5MT0iMTE1Mi45NTMxIiB5Mj0iMTIzOC43OTY5Ii8+PGxpbmUgc3R5bGU9InN0cm9rZTojMTgxODE4O3N0cm9rZS13aWR0aDoxLjA7IiB4MT0iNjAxIiB4Mj0iNjM2IiB5MT0iMTIzOC43OTY5IiB5Mj0iMTIzOC43OTY5Ii8+PHBvbHlnb24gZmlsbD0iIzE4MTgxOCIgcG9pbnRzPSI2MjYsMTIzNC43OTY5LDYzNiwxMjM4Ljc5NjksNjI2LDEyNDIuNzk2OSw2MzAsMTIzOC43OTY5IiBzdHlsZT0ic3Ryb2tlOiMxODE4MTg7c3Ryb2tlLXdpZHRoOjEuMDsiLz48bGluZSBzdHlsZT0ic3Ryb2tlOiMxODE4MTg7c3Ryb2tlLXdpZHRoOjEuMDsiIHgxPSI2OTUiIHgyPSI2OTUiIHkxPSIxMjIwLjc5NjkiIHkyPSIxMjM4Ljc5NjkiLz48bGluZSBzdHlsZT0ic3Ryb2tlOiMxODE4MTg7c3Ryb2tlLXdpZHRoOjEuMDsiIHgxPSI2OTUiIHgyPSI2NjAiIHkxPSIxMjM4Ljc5NjkiIHkyPSIxMjM4Ljc5NjkiLz48cG9seWdvbiBmaWxsPSIjMTgxODE4IiBwb2ludHM9IjY3MCwxMjM0Ljc5NjksNjYwLDEyMzguNzk2OSw2NzAsMTI0Mi43OTY5LDY2NiwxMjM4Ljc5NjkiIHN0eWxlPSJzdHJva2U6IzE4MTgxODtzdHJva2Utd2lkdGg6MS4wOyIvPjxsaW5lIHN0eWxlPSJzdHJva2U6IzE4MTgxODtzdHJva2Utd2lkdGg6MS4wOyIgeDE9IjY0OCIgeDI9IjY0OCIgeTE9IjEwNTEuMTA5NCIgeTI9IjEwODYuMTA5NCIvPjxwb2x5Z29uIGZpbGw9IiMxODE4MTgiIHBvaW50cz0iNjQ0LDEwNzYuMTA5NCw2NDgsMTA4Ni4xMDk0LDY1MiwxMDc2LjEwOTQsNjQ4LDEwODAuMTA5NCIgc3R5bGU9InN0cm9rZTojMTgxODE4O3N0cm9rZS13aWR0aDoxLjA7Ii8+PGxpbmUgc3R5bGU9InN0cm9rZTojMTgxODE4O3N0cm9rZS13aWR0aDoxLjA7IiB4MT0iODU3IiB4Mj0iODU3IiB5MT0iODQ3LjU3ODEiIHkyPSI4ODIuNTc4MSIvPjxwb2x5Z29uIGZpbGw9IiMxODE4MTgiIHBvaW50cz0iODUzLDg3Mi41NzgxLDg1Nyw4ODIuNTc4MSw4NjEsODcyLjU3ODEsODU3LDg3Ni41NzgxIiBzdHlsZT0ic3Ryb2tlOiMxODE4MTg7c3Ryb2tlLXdpZHRoOjEuMDsiLz48bGluZSBzdHlsZT0ic3Ryb2tlOiMxODE4MTg7c3Ryb2tlLXdpZHRoOjEuMDsiIHgxPSI5MjMiIHgyPSI5MjMiIHkxPSIxMDE3LjI2NTYiIHkyPSIxMDUyLjI2NTYiLz48cG9seWdvbiBmaWxsPSIjMTgxODE4IiBwb2ludHM9IjkxOSwxMDQyLjI2NTYsOTIzLDEwNTIuMjY1Niw5MjcsMTA0Mi4yNjU2LDkyMywxMDQ2LjI2NTYiIHN0eWxlPSJzdHJva2U6IzE4MTgxODtzdHJva2Utd2lkdGg6MS4wOyIvPjxsaW5lIHN0eWxlPSJzdHJva2U6IzE4MTgxODtzdHJva2Utd2lkdGg6MS4wOyIgeDE9IjkyMyIgeDI9IjkyMyIgeTE9IjEyMDAuOTUzMSIgeTI9IjEyMzUuOTUzMSIvPjxwb2x5Z29uIGZpbGw9IiMxODE4MTgiIHBvaW50cz0iOTE5LDEyMjUuOTUzMSw5MjMsMTIzNS45NTMxLDkyNywxMjI1Ljk1MzEsOTIzLDEyMjkuOTUzMSIgc3R5bGU9InN0cm9rZTojMTgxODE4O3N0cm9rZS13aWR0aDoxLjA7Ii8+PGxpbmUgc3R5bGU9InN0cm9rZTojMTgxODE4O3N0cm9rZS13aWR0aDoxLjA7IiB4MT0iOTIzIiB4Mj0iOTIzIiB5MT0iMTMyNy43OTY5IiB5Mj0iMTM1MS43OTY5Ii8+PHBvbHlnb24gZmlsbD0iIzE4MTgxOCIgcG9pbnRzPSI5MTksMTM0MS43OTY5LDkyMywxMzUxLjc5NjksOTI3LDEzNDEuNzk2OSw5MjMsMTM0NS43OTY5IiBzdHlsZT0ic3Ryb2tlOiMxODE4MTg7c3Ryb2tlLXdpZHRoOjEuMDsiLz48bGluZSBzdHlsZT0ic3Ryb2tlOiMxODE4MTg7c3Ryb2tlLXdpZHRoOjEuMDsiIHgxPSI5ODIiIHgyPSIxMDAzIiB5MT0iMTMxNS43OTY5IiB5Mj0iMTMxNS43OTY5Ii8+PHBvbHlnb24gZmlsbD0iIzE4MTgxOCIgcG9pbnRzPSI5OTksMTM1OC4yMTg4LDEwMDMsMTM2OC4yMTg4LDEwMDcsMTM1OC4yMTg4LDEwMDMsMTM2Mi4yMTg4IiBzdHlsZT0ic3Ryb2tlOiMxODE4MTg7c3Ryb2tlLXdpZHRoOjEuMDsiLz48bGluZSBzdHlsZT0ic3Ryb2tlOiMxODE4MTg7c3Ryb2tlLXdpZHRoOjEuMDsiIHgxPSIxMDAzIiB4Mj0iMTAwMyIgeTE9IjEzMTUuNzk2OSIgeTI9IjE0MTYuNjQwNiIvPjxsaW5lIHN0eWxlPSJzdHJva2U6IzE4MTgxODtzdHJva2Utd2lkdGg6MS4wOyIgeDE9IjEwMDMiIHgyPSI5MzUiIHkxPSIxNDE2LjY0MDYiIHkyPSIxNDE2LjY0MDYiLz48cG9seWdvbiBmaWxsPSIjMTgxODE4IiBwb2ludHM9Ijk0NSwxNDEyLjY0MDYsOTM1LDE0MTYuNjQwNiw5NDUsMTQyMC42NDA2LDk0MSwxNDE2LjY0MDYiIHN0eWxlPSJzdHJva2U6IzE4MTgxODtzdHJva2Utd2lkdGg6MS4wOyIvPjxsaW5lIHN0eWxlPSJzdHJva2U6IzE4MTgxODtzdHJva2Utd2lkdGg6MS4wOyIgeDE9IjkyMyIgeDI9IjkyMyIgeTE9IjEzODQuNjQwNiIgeTI9IjE0MDQuNjQwNiIvPjxwb2x5Z29uIGZpbGw9IiMxODE4MTgiIHBvaW50cz0iOTE5LDEzOTQuNjQwNiw5MjMsMTQwNC42NDA2LDkyNywxMzk0LjY0MDYsOTIzLDEzOTguNjQwNiIgc3R5bGU9InN0cm9rZTojMTgxODE4O3N0cm9rZS13aWR0aDoxLjA7Ii8+PGxpbmUgc3R5bGU9InN0cm9rZTojMTgxODE4O3N0cm9rZS13aWR0aDoxLjA7IiB4MT0iOTIzIiB4Mj0iOTIzIiB5MT0iMTI2OC43OTY5IiB5Mj0iMTMwMy43OTY5Ii8+PHBvbHlnb24gZmlsbD0iIzE4MTgxOCIgcG9pbnRzPSI5MTksMTI5My43OTY5LDkyMywxMzAzLjc5NjksOTI3LDEyOTMuNzk2OSw5MjMsMTI5Ny43OTY5IiBzdHlsZT0ic3Ryb2tlOiMxODE4MTg7c3Ryb2tlLXdpZHRoOjEuMDsiLz48bGluZSBzdHlsZT0ic3Ryb2tlOiMxODE4MTg7c3Ryb2tlLXdpZHRoOjEuMDsiIHgxPSI5MjMiIHgyPSI5MjMiIHkxPSIxNDI4LjY0MDYiIHkyPSIxNDYzLjY0MDYiLz48cG9seWdvbiBmaWxsPSIjMTgxODE4IiBwb2ludHM9IjkxOSwxNDUzLjY0MDYsOTIzLDE0NjMuNjQwNiw5MjcsMTQ1My42NDA2LDkyMywxNDU3LjY0MDYiIHN0eWxlPSJzdHJva2U6IzE4MTgxODtzdHJva2Utd2lkdGg6MS4wOyIvPjxsaW5lIHN0eWxlPSJzdHJva2U6IzE4MTgxODtzdHJva2Utd2lkdGg6MS4wOyIgeDE9IjkyMyIgeDI9IjkyMyIgeTE9IjE0OTYuNDg0NCIgeTI9IjE1MzAuNDg0NCIvPjxwb2x5Z29uIGZpbGw9IiMxODE4MTgiIHBvaW50cz0iOTE5LDE1MjAuNDg0NCw5MjMsMTUzMC40ODQ0LDkyNywxNTIwLjQ4NDQsOTIzLDE1MjQuNDg0NCIgc3R5bGU9InN0cm9rZTojMTgxODE4O3N0cm9rZS13aWR0aDoxLjA7Ii8+PGxpbmUgc3R5bGU9InN0cm9rZTojMTgxODE4O3N0cm9rZS13aWR0aDoxLjA7IiB4MT0iOTcwIiB4Mj0iOTcwIiB5MT0iMTY2NS4xNzE5IiB5Mj0iMTcwMC4xNzE5Ii8+PHBvbHlnb24gZmlsbD0iIzE4MTgxOCIgcG9pbnRzPSI5NjYsMTY5MC4xNzE5LDk3MCwxNzAwLjE3MTksOTc0LDE2OTAuMTcxOSw5NzAsMTY5NC4xNzE5IiBzdHlsZT0ic3Ryb2tlOiMxODE4MTg7c3Ryb2tlLXdpZHRoOjEuMDsiLz48bGluZSBzdHlsZT0ic3Ryb2tlOiMxODE4MTg7c3Ryb2tlLXdpZHRoOjEuMDsiIHgxPSI4ODYiIHgyPSI4NzYiIHkxPSIxNjEwLjMyODEiIHkyPSIxNjEwLjMyODEiLz48bGluZSBzdHlsZT0ic3Ryb2tlOiMxODE4MTg7c3Ryb2tlLXdpZHRoOjEuMDsiIHgxPSI4NzYiIHgyPSI4NzYiIHkxPSIxNjEwLjMyODEiIHkyPSIxNjMyLjMyODEiLz48cG9seWdvbiBmaWxsPSIjMTgxODE4IiBwb2ludHM9Ijg3MiwxNjIyLjMyODEsODc2LDE2MzIuMzI4MSw4ODAsMTYyMi4zMjgxLDg3NiwxNjI2LjMyODEiIHN0eWxlPSJzdHJva2U6IzE4MTgxODtzdHJva2Utd2lkdGg6MS4wOyIvPjxsaW5lIHN0eWxlPSJzdHJva2U6IzE4MTgxODtzdHJva2Utd2lkdGg6MS4wOyIgeDE9Ijk2MCIgeDI9Ijk3MCIgeTE9IjE2MTAuMzI4MSIgeTI9IjE2MTAuMzI4MSIvPjxsaW5lIHN0eWxlPSJzdHJva2U6IzE4MTgxODtzdHJva2Utd2lkdGg6MS4wOyIgeDE9Ijk3MCIgeDI9Ijk3MCIgeTE9IjE2MTAuMzI4MSIgeTI9IjE2MzIuMzI4MSIvPjxwb2x5Z29uIGZpbGw9IiMxODE4MTgiIHBvaW50cz0iOTY2LDE2MjIuMzI4MSw5NzAsMTYzMi4zMjgxLDk3NCwxNjIyLjMyODEsOTcwLDE2MjYuMzI4MSIgc3R5bGU9InN0cm9rZTojMTgxODE4O3N0cm9rZS13aWR0aDoxLjA7Ii8+PGxpbmUgc3R5bGU9InN0cm9rZTojMTgxODE4O3N0cm9rZS13aWR0aDoxLjA7IiB4MT0iODc2IiB4Mj0iODc2IiB5MT0iMTY2NS4xNzE5IiB5Mj0iMTc1MS4wMTU2Ii8+PGxpbmUgc3R5bGU9InN0cm9rZTojMTgxODE4O3N0cm9rZS13aWR0aDoxLjA7IiB4MT0iODc2IiB4Mj0iOTExIiB5MT0iMTc1MS4wMTU2IiB5Mj0iMTc1MS4wMTU2Ii8+PHBvbHlnb24gZmlsbD0iIzE4MTgxOCIgcG9pbnRzPSI5MDEsMTc0Ny4wMTU2LDkxMSwxNzUxLjAxNTYsOTAxLDE3NTUuMDE1Niw5MDUsMTc1MS4wMTU2IiBzdHlsZT0ic3Ryb2tlOiMxODE4MTg7c3Ryb2tlLXdpZHRoOjEuMDsiLz48bGluZSBzdHlsZT0ic3Ryb2tlOiMxODE4MTg7c3Ryb2tlLXdpZHRoOjEuMDsiIHgxPSI5NzAiIHgyPSI5NzAiIHkxPSIxNzMzLjAxNTYiIHkyPSIxNzUxLjAxNTYiLz48bGluZSBzdHlsZT0ic3Ryb2tlOiMxODE4MTg7c3Ryb2tlLXdpZHRoOjEuMDsiIHgxPSI5NzAiIHgyPSI5MzUiIHkxPSIxNzUxLjAxNTYiIHkyPSIxNzUxLjAxNTYiLz48cG9seWdvbiBmaWxsPSIjMTgxODE4IiBwb2ludHM9Ijk0NSwxNzQ3LjAxNTYsOTM1LDE3NTEuMDE1Niw5NDUsMTc1NS4wMTU2LDk0MSwxNzUxLjAxNTYiIHN0eWxlPSJzdHJva2U6IzE4MTgxODtzdHJva2Utd2lkdGg6MS4wOyIvPjxsaW5lIHN0eWxlPSJzdHJva2U6IzE4MTgxODtzdHJva2Utd2lkdGg6MS4wOyIgeDE9IjkyMyIgeDI9IjkyMyIgeTE9IjE1NjMuMzI4MSIgeTI9IjE1OTguMzI4MSIvPjxwb2x5Z29uIGZpbGw9IiMxODE4MTgiIHBvaW50cz0iOTE5LDE1ODguMzI4MSw5MjMsMTU5OC4zMjgxLDkyNywxNTg4LjMyODEsOTIzLDE1OTIuMzI4MSIgc3R5bGU9InN0cm9rZTojMTgxODE4O3N0cm9rZS13aWR0aDoxLjA7Ii8+PGxpbmUgc3R5bGU9InN0cm9rZTojMTgxODE4O3N0cm9rZS13aWR0aDoxLjA7IiB4MT0iOTIzIiB4Mj0iOTIzIiB5MT0iMTE0NC4xMDk0IiB5Mj0iMTE2OC4xMDk0Ii8+PHBvbHlnb24gZmlsbD0iIzE4MTgxOCIgcG9pbnRzPSI5MTksMTE1OC4xMDk0LDkyMywxMTY4LjEwOTQsOTI3LDExNTguMTA5NCw5MjMsMTE2Mi4xMDk0IiBzdHlsZT0ic3Ryb2tlOiMxODE4MTg7c3Ryb2tlLXdpZHRoOjEuMDsiLz48bGluZSBzdHlsZT0ic3Ryb2tlOiMxODE4MTg7c3Ryb2tlLXdpZHRoOjEuMDsiIHgxPSI5ODIiIHgyPSIxMDIxIiB5MT0iMTEzMi4xMDk0IiB5Mj0iMTEzMi4xMDk0Ii8+PHBvbHlnb24gZmlsbD0iIzE4MTgxOCIgcG9pbnRzPSIxMDE3LDE0NTQuMDYyNSwxMDIxLDE0NjQuMDYyNSwxMDI1LDE0NTQuMDYyNSwxMDIxLDE0NTguMDYyNSIgc3R5bGU9InN0cm9rZTojMTgxODE4O3N0cm9rZS13aWR0aDoxLjA7Ii8+PGxpbmUgc3R5bGU9InN0cm9rZTojMTgxODE4O3N0cm9rZS13aWR0aDoxLjA7IiB4MT0iMTAyMSIgeDI9IjEwMjEiIHkxPSIxMTMyLjEwOTQiIHkyPSIxNzk1LjAxNTYiLz48bGluZSBzdHlsZT0ic3Ryb2tlOiMxODE4MTg7c3Ryb2tlLXdpZHRoOjEuMDsiIHgxPSIxMDIxIiB4Mj0iOTM1IiB5MT0iMTc5NS4wMTU2IiB5Mj0iMTc5NS4wMTU2Ii8+PHBvbHlnb24gZmlsbD0iIzE4MTgxOCIgcG9pbnRzPSI5NDUsMTc5MS4wMTU2LDkzNSwxNzk1LjAxNTYsOTQ1LDE3OTkuMDE1Niw5NDEsMTc5NS4wMTU2IiBzdHlsZT0ic3Ryb2tlOiMxODE4MTg7c3Ryb2tlLXdpZHRoOjEuMDsiLz48bGluZSBzdHlsZT0ic3Ryb2tlOiMxODE4MTg7c3Ryb2tlLXdpZHRoOjEuMDsiIHgxPSI5MjMiIHgyPSI5MjMiIHkxPSIxNzYzLjAxNTYiIHkyPSIxNzgzLjAxNTYiLz48cG9seWdvbiBmaWxsPSIjMTgxODE4IiBwb2ludHM9IjkxOSwxNzczLjAxNTYsOTIzLDE3ODMuMDE1Niw5MjcsMTc3My4wMTU2LDkyMywxNzc3LjAxNTYiIHN0eWxlPSJzdHJva2U6IzE4MTgxODtzdHJva2Utd2lkdGg6MS4wOyIvPjxsaW5lIHN0eWxlPSJzdHJva2U6IzE4MTgxODtzdHJva2Utd2lkdGg6MS4wOyIgeDE9IjkyMyIgeDI9IjkyMyIgeTE9IjEwODUuMTA5NCIgeTI9IjExMjAuMTA5NCIvPjxwb2x5Z29uIGZpbGw9IiMxODE4MTgiIHBvaW50cz0iOTE5LDExMTAuMTA5NCw5MjMsMTEyMC4xMDk0LDkyNywxMTEwLjEwOTQsOTIzLDExMTQuMTA5NCIgc3R5bGU9InN0cm9rZTojMTgxODE4O3N0cm9rZS13aWR0aDoxLjA7Ii8+PGxpbmUgc3R5bGU9InN0cm9rZTojMTgxODE4O3N0cm9rZS13aWR0aDoxLjA7IiB4MT0iODIwIiB4Mj0iNzkxIiB5MT0iOTYyLjQyMTkiIHkyPSI5NjIuNDIxOSIvPjxsaW5lIHN0eWxlPSJzdHJva2U6IzE4MTgxODtzdHJva2Utd2lkdGg6MS4wOyIgeDE9Ijc5MSIgeDI9Ijc5MSIgeTE9Ijk2Mi40MjE5IiB5Mj0iOTg0LjQyMTkiLz48cG9seWdvbiBmaWxsPSIjMTgxODE4IiBwb2ludHM9Ijc4Nyw5NzQuNDIxOSw3OTEsOTg0LjQyMTksNzk1LDk3NC40MjE5LDc5MSw5NzguNDIxOSIgc3R5bGU9InN0cm9rZTojMTgxODE4O3N0cm9rZS13aWR0aDoxLjA7Ii8+PGxpbmUgc3R5bGU9InN0cm9rZTojMTgxODE4O3N0cm9rZS13aWR0aDoxLjA7IiB4MT0iODk0IiB4Mj0iOTIzIiB5MT0iOTYyLjQyMTkiIHkyPSI5NjIuNDIxOSIvPjxsaW5lIHN0eWxlPSJzdHJva2U6IzE4MTgxODtzdHJva2Utd2lkdGg6MS4wOyIgeDE9IjkyMyIgeDI9IjkyMyIgeTE9Ijk2Mi40MjE5IiB5Mj0iOTg0LjQyMTkiLz48cG9seWdvbiBmaWxsPSIjMTgxODE4IiBwb2ludHM9IjkxOSw5NzQuNDIxOSw5MjMsOTg0LjQyMTksOTI3LDk3NC40MjE5LDkyMyw5NzguNDIxOSIgc3R5bGU9InN0cm9rZTojMTgxODE4O3N0cm9rZS13aWR0aDoxLjA7Ii8+PGxpbmUgc3R5bGU9InN0cm9rZTojMTgxODE4O3N0cm9rZS13aWR0aDoxLjA7IiB4MT0iNzkxIiB4Mj0iNzkxIiB5MT0iMTAxNy4yNjU2IiB5Mj0iMTgyNS4wMTU2Ii8+PGxpbmUgc3R5bGU9InN0cm9rZTojMTgxODE4O3N0cm9rZS13aWR0aDoxLjA7IiB4MT0iNzkxIiB4Mj0iODQ1IiB5MT0iMTgyNS4wMTU2IiB5Mj0iMTgyNS4wMTU2Ii8+PHBvbHlnb24gZmlsbD0iIzE4MTgxOCIgcG9pbnRzPSI4MzUsMTgyMS4wMTU2LDg0NSwxODI1LjAxNTYsODM1LDE4MjkuMDE1Niw4MzksMTgyNS4wMTU2IiBzdHlsZT0ic3Ryb2tlOiMxODE4MTg7c3Ryb2tlLXdpZHRoOjEuMDsiLz48bGluZSBzdHlsZT0ic3Ryb2tlOiMxODE4MTg7c3Ryb2tlLXdpZHRoOjEuMDsiIHgxPSI5MjMiIHgyPSI5MjMiIHkxPSIxODA3LjAxNTYiIHkyPSIxODI1LjAxNTYiLz48bGluZSBzdHlsZT0ic3Ryb2tlOiMxODE4MTg7c3Ryb2tlLXdpZHRoOjEuMDsiIHgxPSI5MjMiIHgyPSI4NjkiIHkxPSIxODI1LjAxNTYiIHkyPSIxODI1LjAxNTYiLz48cG9seWdvbiBmaWxsPSIjMTgxODE4IiBwb2ludHM9Ijg3OSwxODIxLjAxNTYsODY5LDE4MjUuMDE1Niw4NzksMTgyOS4wMTU2LDg3NSwxODI1LjAxNTYiIHN0eWxlPSJzdHJva2U6IzE4MTgxODtzdHJva2Utd2lkdGg6MS4wOyIvPjxsaW5lIHN0eWxlPSJzdHJva2U6IzE4MTgxODtzdHJva2Utd2lkdGg6MS4wOyIgeDE9Ijg1NyIgeDI9Ijg1NyIgeTE9IjkxNS40MjE5IiB5Mj0iOTUwLjQyMTkiLz48cG9seWdvbiBmaWxsPSIjMTgxODE4IiBwb2ludHM9Ijg1Myw5NDAuNDIxOSw4NTcsOTUwLjQyMTksODYxLDk0MC40MjE5LDg1Nyw5NDQuNDIxOSIgc3R5bGU9InN0cm9rZTojMTgxODE4O3N0cm9rZS13aWR0aDoxLjA7Ii8+PGxpbmUgc3R5bGU9InN0cm9rZTojMTgxODE4O3N0cm9rZS13aWR0aDoxLjA7IiB4MT0iNzE1LjUiIHgyPSI2NDgiIHkxPSI3OTIuNzM0NCIgeTI9Ijc5Mi43MzQ0Ii8+PGxpbmUgc3R5bGU9InN0cm9rZTojMTgxODE4O3N0cm9rZS13aWR0aDoxLjA7IiB4MT0iNjQ4IiB4Mj0iNjQ4IiB5MT0iNzkyLjczNDQiIHkyPSI4MTQuNzM0NCIvPjxwb2x5Z29uIGZpbGw9IiMxODE4MTgiIHBvaW50cz0iNjQ0LDgwNC43MzQ0LDY0OCw4MTQuNzM0NCw2NTIsODA0LjczNDQsNjQ4LDgwOC43MzQ0IiBzdHlsZT0ic3Ryb2tlOiMxODE4MTg7c3Ryb2tlLXdpZHRoOjEuMDsiLz48bGluZSBzdHlsZT0ic3Ryb2tlOiMxODE4MTg7c3Ryb2tlLXdpZHRoOjEuMDsiIHgxPSI3ODkuNSIgeDI9Ijg1NyIgeTE9Ijc5Mi43MzQ0IiB5Mj0iNzkyLjczNDQiLz48bGluZSBzdHlsZT0ic3Ryb2tlOiMxODE4MTg7c3Ryb2tlLXdpZHRoOjEuMDsiIHgxPSI4NTciIHgyPSI4NTciIHkxPSI3OTIuNzM0NCIgeTI9IjgxNC43MzQ0Ii8+PHBvbHlnb24gZmlsbD0iIzE4MTgxOCIgcG9pbnRzPSI4NTMsODA0LjczNDQsODU3LDgxNC43MzQ0LDg2MSw4MDQuNzM0NCw4NTcsODA4LjczNDQiIHN0eWxlPSJzdHJva2U6IzE4MTgxODtzdHJva2Utd2lkdGg6MS4wOyIvPjxsaW5lIHN0eWxlPSJzdHJva2U6IzE4MTgxODtzdHJva2Utd2lkdGg6MS4wOyIgeDE9IjY0OCIgeDI9IjY0OCIgeTE9IjEyNTAuNzk2OSIgeTI9IjE4NTUuMDE1NiIvPjxsaW5lIHN0eWxlPSJzdHJva2U6IzE4MTgxODtzdHJva2Utd2lkdGg6MS4wOyIgeDE9IjY0OCIgeDI9Ijc0MC41IiB5MT0iMTg1NS4wMTU2IiB5Mj0iMTg1NS4wMTU2Ii8+PHBvbHlnb24gZmlsbD0iIzE4MTgxOCIgcG9pbnRzPSI3MzAuNSwxODUxLjAxNTYsNzQwLjUsMTg1NS4wMTU2LDczMC41LDE4NTkuMDE1Niw3MzQuNSwxODU1LjAxNTYiIHN0eWxlPSJzdHJva2U6IzE4MTgxODtzdHJva2Utd2lkdGg6MS4wOyIvPjxsaW5lIHN0eWxlPSJzdHJva2U6IzE4MTgxODtzdHJva2Utd2lkdGg6MS4wOyIgeDE9Ijg1NyIgeDI9Ijg1NyIgeTE9IjE4MzcuMDE1NiIgeTI9IjE4NTUuMDE1NiIvPjxsaW5lIHN0eWxlPSJzdHJva2U6IzE4MTgxODtzdHJva2Utd2lkdGg6MS4wOyIgeDE9Ijg1NyIgeDI9Ijc2NC41IiB5MT0iMTg1NS4wMTU2IiB5Mj0iMTg1NS4wMTU2Ii8+PHBvbHlnb24gZmlsbD0iIzE4MTgxOCIgcG9pbnRzPSI3NzQuNSwxODUxLjAxNTYsNzY0LjUsMTg1NS4wMTU2LDc3NC41LDE4NTkuMDE1Niw3NzAuNSwxODU1LjAxNTYiIHN0eWxlPSJzdHJva2U6IzE4MTgxODtzdHJva2Utd2lkdGg6MS4wOyIvPjxsaW5lIHN0eWxlPSJzdHJva2U6IzE4MTgxODtzdHJva2Utd2lkdGg6MS4wOyIgeDE9IjU5Ny43NSIgeDI9IjU0NyIgeTE9Ijc1OC43MzQ0IiB5Mj0iNzU4LjczNDQiLz48bGluZSBzdHlsZT0ic3Ryb2tlOiMxODE4MTg7c3Ryb2tlLXdpZHRoOjEuMDsiIHgxPSI1NDciIHgyPSI1NDciIHkxPSI3NTguNzM0NCIgeTI9Ijc4MC43MzQ0Ii8+PHBvbHlnb24gZmlsbD0iIzE4MTgxOCIgcG9pbnRzPSI1NDMsNzcwLjczNDQsNTQ3LDc4MC43MzQ0LDU1MSw3NzAuNzM0NCw1NDcsNzc0LjczNDQiIHN0eWxlPSJzdHJva2U6IzE4MTgxODtzdHJva2Utd2lkdGg6MS4wOyIvPjxsaW5lIHN0eWxlPSJzdHJva2U6IzE4MTgxODtzdHJva2Utd2lkdGg6MS4wOyIgeDE9IjY3MS43NSIgeDI9Ijc1Mi41IiB5MT0iNzU4LjczNDQiIHkyPSI3NTguNzM0NCIvPjxsaW5lIHN0eWxlPSJzdHJva2U6IzE4MTgxODtzdHJva2Utd2lkdGg6MS4wOyIgeDE9Ijc1Mi41IiB4Mj0iNzUyLjUiIHkxPSI3NTguNzM0NCIgeTI9Ijc4MC43MzQ0Ii8+PHBvbHlnb24gZmlsbD0iIzE4MTgxOCIgcG9pbnRzPSI3NDguNSw3NzAuNzM0NCw3NTIuNSw3ODAuNzM0NCw3NTYuNSw3NzAuNzM0NCw3NTIuNSw3NzQuNzM0NCIgc3R5bGU9InN0cm9rZTojMTgxODE4O3N0cm9rZS13aWR0aDoxLjA7Ii8+PGxpbmUgc3R5bGU9InN0cm9rZTojMTgxODE4O3N0cm9rZS13aWR0aDoxLjA7IiB4MT0iNTQ3IiB4Mj0iNTQ3IiB5MT0iODEzLjU3ODEiIHkyPSIxODg1LjAxNTYiLz48bGluZSBzdHlsZT0ic3Ryb2tlOiMxODE4MTg7c3Ryb2tlLXdpZHRoOjEuMDsiIHgxPSI1NDciIHgyPSI2MjIuNzUiIHkxPSIxODg1LjAxNTYiIHkyPSIxODg1LjAxNTYiLz48cG9seWdvbiBmaWxsPSIjMTgxODE4IiBwb2ludHM9IjYxMi43NSwxODgxLjAxNTYsNjIyLjc1LDE4ODUuMDE1Niw2MTIuNzUsMTg4OS4wMTU2LDYxNi43NSwxODg1LjAxNTYiIHN0eWxlPSJzdHJva2U6IzE4MTgxODtzdHJva2Utd2lkdGg6MS4wOyIvPjxsaW5lIHN0eWxlPSJzdHJva2U6IzE4MTgxODtzdHJva2Utd2lkdGg6MS4wOyIgeDE9Ijc1Mi41IiB4Mj0iNzUyLjUiIHkxPSIxODY3LjAxNTYiIHkyPSIxODg1LjAxNTYiLz48bGluZSBzdHlsZT0ic3Ryb2tlOiMxODE4MTg7c3Ryb2tlLXdpZHRoOjEuMDsiIHgxPSI3NTIuNSIgeDI9IjY0Ni43NSIgeTE9IjE4ODUuMDE1NiIgeTI9IjE4ODUuMDE1NiIvPjxwb2x5Z29uIGZpbGw9IiMxODE4MTgiIHBvaW50cz0iNjU2Ljc1LDE4ODEuMDE1Niw2NDYuNzUsMTg4NS4wMTU2LDY1Ni43NSwxODg5LjAxNTYsNjUyLjc1LDE4ODUuMDE1NiIgc3R5bGU9InN0cm9rZTojMTgxODE4O3N0cm9rZS13aWR0aDoxLjA7Ii8+PGxpbmUgc3R5bGU9InN0cm9rZTojMTgxODE4O3N0cm9rZS13aWR0aDoxLjA7IiB4MT0iNjM0Ljc1IiB4Mj0iNjM0Ljc1IiB5MT0iNzExLjczNDQiIHkyPSI3NDYuNzM0NCIvPjxwb2x5Z29uIGZpbGw9IiMxODE4MTgiIHBvaW50cz0iNjMwLjc1LDczNi43MzQ0LDYzNC43NSw3NDYuNzM0NCw2MzguNzUsNzM2LjczNDQsNjM0Ljc1LDc0MC43MzQ0IiBzdHlsZT0ic3Ryb2tlOiMxODE4MTg7c3Ryb2tlLXdpZHRoOjEuMDsiLz48bGluZSBzdHlsZT0ic3Ryb2tlOiMxODE4MTg7c3Ryb2tlLXdpZHRoOjEuMDsiIHgxPSI2MzQuNzUiIHgyPSI2MzQuNzUiIHkxPSI1ODcuMDQ2OSIgeTI9IjYxMS4wNDY5Ii8+PHBvbHlnb24gZmlsbD0iIzE4MTgxOCIgcG9pbnRzPSI2MzAuNzUsNjAxLjA0NjksNjM0Ljc1LDYxMS4wNDY5LDYzOC43NSw2MDEuMDQ2OSw2MzQuNzUsNjA1LjA0NjkiIHN0eWxlPSJzdHJva2U6IzE4MTgxODtzdHJva2Utd2lkdGg6MS4wOyIvPjxsaW5lIHN0eWxlPSJzdHJva2U6IzE4MTgxODtzdHJva2Utd2lkdGg6MS4wOyIgeDE9IjY4Mi43NSIgeDI9IjEwMzkiIHkxPSI1NzUuMDQ2OSIgeTI9IjU3NS4wNDY5Ii8+PHBvbHlnb24gZmlsbD0iIzE4MTgxOCIgcG9pbnRzPSIxMDM1LDEyNDguNTMxMywxMDM5LDEyNTguNTMxMywxMDQzLDEyNDguNTMxMywxMDM5LDEyNTIuNTMxMyIgc3R5bGU9InN0cm9rZTojMTgxODE4O3N0cm9rZS13aWR0aDoxLjA7Ii8+PGxpbmUgc3R5bGU9InN0cm9rZTojMTgxODE4O3N0cm9rZS13aWR0aDoxLjA7IiB4MT0iMTAzOSIgeDI9IjEwMzkiIHkxPSI1NzUuMDQ2OSIgeTI9IjE5MjkuMDE1NiIvPjxsaW5lIHN0eWxlPSJzdHJva2U6IzE4MTgxODtzdHJva2Utd2lkdGg6MS4wOyIgeDE9IjEwMzkiIHgyPSI2NDYuNzUiIHkxPSIxOTI5LjAxNTYiIHkyPSIxOTI5LjAxNTYiLz48cG9seWdvbiBmaWxsPSIjMTgxODE4IiBwb2ludHM9IjY1Ni43NSwxOTI1LjAxNTYsNjQ2Ljc1LDE5MjkuMDE1Niw2NTYuNzUsMTkzMy4wMTU2LDY1Mi43NSwxOTI5LjAxNTYiIHN0eWxlPSJzdHJva2U6IzE4MTgxODtzdHJva2Utd2lkdGg6MS4wOyIvPjxsaW5lIHN0eWxlPSJzdHJva2U6IzE4MTgxODtzdHJva2Utd2lkdGg6MS4wOyIgeDE9IjYzNC43NSIgeDI9IjYzNC43NSIgeTE9IjE4OTcuMDE1NiIgeTI9IjE5MTcuMDE1NiIvPjxwb2x5Z29uIGZpbGw9IiMxODE4MTgiIHBvaW50cz0iNjMwLjc1LDE5MDcuMDE1Niw2MzQuNzUsMTkxNy4wMTU2LDYzOC43NSwxOTA3LjAxNTYsNjM0Ljc1LDE5MTEuMDE1NiIgc3R5bGU9InN0cm9rZTojMTgxODE4O3N0cm9rZS13aWR0aDoxLjA7Ii8+PGxpbmUgc3R5bGU9InN0cm9rZTojMTgxODE4O3N0cm9rZS13aWR0aDoxLjA7IiB4MT0iNjM0Ljc1IiB4Mj0iNjM0Ljc1IiB5MT0iNTQzLjA0NjkiIHkyPSI1NjMuMDQ2OSIvPjxwb2x5Z29uIGZpbGw9IiMxODE4MTgiIHBvaW50cz0iNjMwLjc1LDU1My4wNDY5LDYzNC43NSw1NjMuMDQ2OSw2MzguNzUsNTUzLjA0NjksNjM0Ljc1LDU1Ny4wNDY5IiBzdHlsZT0ic3Ryb2tlOiMxODE4MTg7c3Ryb2tlLXdpZHRoOjEuMDsiLz48bGluZSBzdHlsZT0ic3Ryb2tlOiMxODE4MTg7c3Ryb2tlLXdpZHRoOjEuMDsiIHgxPSIzNjcuNzUiIHgyPSIxMjAuNzUiIHkxPSI0MzUuMzU5NCIgeTI9IjQzNS4zNTk0Ii8+PGxpbmUgc3R5bGU9InN0cm9rZTojMTgxODE4O3N0cm9rZS13aWR0aDoxLjA7IiB4MT0iMTIwLjc1IiB4Mj0iMTIwLjc1IiB5MT0iNDM1LjM1OTQiIHkyPSI0NTcuMzU5NCIvPjxwb2x5Z29uIGZpbGw9IiMxODE4MTgiIHBvaW50cz0iMTE2Ljc1LDQ0Ny4zNTk0LDEyMC43NSw0NTcuMzU5NCwxMjQuNzUsNDQ3LjM1OTQsMTIwLjc1LDQ1MS4zNTk0IiBzdHlsZT0ic3Ryb2tlOiMxODE4MTg7c3Ryb2tlLXdpZHRoOjEuMDsiLz48bGluZSBzdHlsZT0ic3Ryb2tlOiMxODE4MTg7c3Ryb2tlLXdpZHRoOjEuMDsiIHgxPSI0ODUuNzUiIHgyPSI2MzQuNzUiIHkxPSI0MzUuMzU5NCIgeTI9IjQzNS4zNTk0Ii8+PGxpbmUgc3R5bGU9InN0cm9rZTojMTgxODE4O3N0cm9rZS13aWR0aDoxLjA7IiB4MT0iNjM0Ljc1IiB4Mj0iNjM0Ljc1IiB5MT0iNDM1LjM1OTQiIHkyPSI0NTcuMzU5NCIvPjxwb2x5Z29uIGZpbGw9IiMxODE4MTgiIHBvaW50cz0iNjMwLjc1LDQ0Ny4zNTk0LDYzNC43NSw0NTcuMzU5NCw2MzguNzUsNDQ3LjM1OTQsNjM0Ljc1LDQ1MS4zNTk0IiBzdHlsZT0ic3Ryb2tlOiMxODE4MTg7c3Ryb2tlLXdpZHRoOjEuMDsiLz48bGluZSBzdHlsZT0ic3Ryb2tlOiMxODE4MTg7c3Ryb2tlLXdpZHRoOjEuMDsiIHgxPSIxMjAuNzUiIHgyPSIxMjAuNzUiIHkxPSIxNzE3LjMyODEiIHkyPSIxOTU5LjAxNTYiLz48bGluZSBzdHlsZT0ic3Ryb2tlOiMxODE4MTg7c3Ryb2tlLXdpZHRoOjEuMDsiIHgxPSIxMjAuNzUiIHgyPSI0MTQuNzUiIHkxPSIxOTU5LjAxNTYiIHkyPSIxOTU5LjAxNTYiLz48cG9seWdvbiBmaWxsPSIjMTgxODE4IiBwb2ludHM9IjQwNC43NSwxOTU1LjAxNTYsNDE0Ljc1LDE5NTkuMDE1Niw0MDQuNzUsMTk2My4wMTU2LDQwOC43NSwxOTU5LjAxNTYiIHN0eWxlPSJzdHJva2U6IzE4MTgxODtzdHJva2Utd2lkdGg6MS4wOyIvPjxsaW5lIHN0eWxlPSJzdHJva2U6IzE4MTgxODtzdHJva2Utd2lkdGg6MS4wOyIgeDE9IjYzNC43NSIgeDI9IjYzNC43NSIgeTE9IjE5NDEuMDE1NiIgeTI9IjE5NTkuMDE1NiIvPjxsaW5lIHN0eWxlPSJzdHJva2U6IzE4MTgxODtzdHJva2Utd2lkdGg6MS4wOyIgeDE9IjYzNC43NSIgeDI9IjQzOC43NSIgeTE9IjE5NTkuMDE1NiIgeTI9IjE5NTkuMDE1NiIvPjxwb2x5Z29uIGZpbGw9IiMxODE4MTgiIHBvaW50cz0iNDQ4Ljc1LDE5NTUuMDE1Niw0MzguNzUsMTk1OS4wMTU2LDQ0OC43NSwxOTYzLjAxNTYsNDQ0Ljc1LDE5NTkuMDE1NiIgc3R5bGU9InN0cm9rZTojMTgxODE4O3N0cm9rZS13aWR0aDoxLjA7Ii8+PGxpbmUgc3R5bGU9InN0cm9rZTojMTgxODE4O3N0cm9rZS13aWR0aDoxLjA7IiB4MT0iNDI2Ljc1IiB4Mj0iNDI2Ljc1IiB5MT0iNDAzLjM1OTQiIHkyPSI0MjMuMzU5NCIvPjxwb2x5Z29uIGZpbGw9IiMxODE4MTgiIHBvaW50cz0iNDIyLjc1LDQxMy4zNTk0LDQyNi43NSw0MjMuMzU5NCw0MzAuNzUsNDEzLjM1OTQsNDI2Ljc1LDQxNy4zNTk0IiBzdHlsZT0ic3Ryb2tlOiMxODE4MTg7c3Ryb2tlLXdpZHRoOjEuMDsiLz48bGluZSBzdHlsZT0ic3Ryb2tlOiMxODE4MTg7c3Ryb2tlLXdpZHRoOjEuMDsiIHgxPSI2ODcuODc1IiB4Mj0iNDI2Ljc1IiB5MT0iMTUwLjgyODEiIHkyPSIxNTAuODI4MSIvPjxsaW5lIHN0eWxlPSJzdHJva2U6IzE4MTgxODtzdHJva2Utd2lkdGg6MS4wOyIgeDE9IjQyNi43NSIgeDI9IjQyNi43NSIgeTE9IjE1MC44MjgxIiB5Mj0iMTcyLjgyODEiLz48cG9seWdvbiBmaWxsPSIjMTgxODE4IiBwb2ludHM9IjQyMi43NSwxNjIuODI4MSw0MjYuNzUsMTcyLjgyODEsNDMwLjc1LDE2Mi44MjgxLDQyNi43NSwxNjYuODI4MSIgc3R5bGU9InN0cm9rZTojMTgxODE4O3N0cm9rZS13aWR0aDoxLjA7Ii8+PGxpbmUgc3R5bGU9InN0cm9rZTojMTgxODE4O3N0cm9rZS13aWR0aDoxLjA7IiB4MT0iODA1Ljg3NSIgeDI9IjEwOTkiIHkxPSIxNTAuODI4MSIgeTI9IjE1MC44MjgxIi8+PGxpbmUgc3R5bGU9InN0cm9rZTojMTgxODE4O3N0cm9rZS13aWR0aDoxLjA7IiB4MT0iMTA5OSIgeDI9IjEwOTkiIHkxPSIxNTAuODI4MSIgeTI9IjE3Mi44MjgxIi8+PHBvbHlnb24gZmlsbD0iIzE4MTgxOCIgcG9pbnRzPSIxMDk1LDE2Mi44MjgxLDEwOTksMTcyLjgyODEsMTEwMywxNjIuODI4MSwxMDk5LDE2Ni44MjgxIiBzdHlsZT0ic3Ryb2tlOiMxODE4MTg7c3Ryb2tlLXdpZHRoOjEuMDsiLz48bGluZSBzdHlsZT0ic3Ryb2tlOiMxODE4MTg7c3Ryb2tlLXdpZHRoOjEuMDsiIHgxPSI0MjYuNzUiIHgyPSI0MjYuNzUiIHkxPSIxOTcxLjAxNTYiIHkyPSIxOTg5LjAxNTYiLz48bGluZSBzdHlsZT0ic3Ryb2tlOiMxODE4MTg7c3Ryb2tlLXdpZHRoOjEuMDsiIHgxPSI0MjYuNzUiIHgyPSI3MzQuODc1IiB5MT0iMTk4OS4wMTU2IiB5Mj0iMTk4OS4wMTU2Ii8+PHBvbHlnb24gZmlsbD0iIzE4MTgxOCIgcG9pbnRzPSI3MjQuODc1LDE5ODUuMDE1Niw3MzQuODc1LDE5ODkuMDE1Niw3MjQuODc1LDE5OTMuMDE1Niw3MjguODc1LDE5ODkuMDE1NiIgc3R5bGU9InN0cm9rZTojMTgxODE4O3N0cm9rZS13aWR0aDoxLjA7Ii8+PGxpbmUgc3R5bGU9InN0cm9rZTojMTgxODE4O3N0cm9rZS13aWR0aDoxLjA7IiB4MT0iMTA5OSIgeDI9IjEwOTkiIHkxPSIyMDUuNjcxOSIgeTI9IjE5ODkuMDE1NiIvPjxsaW5lIHN0eWxlPSJzdHJva2U6IzE4MTgxODtzdHJva2Utd2lkdGg6MS4wOyIgeDE9IjEwOTkiIHgyPSI3NTguODc1IiB5MT0iMTk4OS4wMTU2IiB5Mj0iMTk4OS4wMTU2Ii8+PHBvbHlnb24gZmlsbD0iIzE4MTgxOCIgcG9pbnRzPSI3NjguODc1LDE5ODUuMDE1Niw3NTguODc1LDE5ODkuMDE1Niw3NjguODc1LDE5OTMuMDE1Niw3NjQuODc1LDE5ODkuMDE1NiIgc3R5bGU9InN0cm9rZTojMTgxODE4O3N0cm9rZS13aWR0aDoxLjA7Ii8+PGxpbmUgc3R5bGU9InN0cm9rZTojMTgxODE4O3N0cm9rZS13aWR0aDoxLjA7IiB4MT0iNzQ2Ljg3NSIgeDI9Ijc0Ni44NzUiIHkxPSIxMTguODI4MSIgeTI9IjEzOC44MjgxIi8+PHBvbHlnb24gZmlsbD0iIzE4MTgxOCIgcG9pbnRzPSI3NDIuODc1LDEyOC44MjgxLDc0Ni44NzUsMTM4LjgyODEsNzUwLjg3NSwxMjguODI4MSw3NDYuODc1LDEzMi44MjgxIiBzdHlsZT0ic3Ryb2tlOiMxODE4MTg7c3Ryb2tlLXdpZHRoOjEuMDsiLz48IS0tU1JDPVtuTFJCUWk5MDVEdGRBeEJLSE5fMEdGaTlOVlc1WEtPUTQxU3I3dzBqZ0w0Zk04ZUY0QWprUjBNQkxsMjE0VmlwY0o3dllxd1NnN2RDSXhsR1hTUXZUeXhTUy0gLVBHdEhEcHdlb1I5SGlRc3VsQV9Rd1R2akVtcmJuLXJLNXhPcWF2Vk14SHJyQWtPS29oMHZuY1k5ZjZKYzFkczVoMzZnM3hNVzBRZ09wQUNBVmZ2a2FoMy1lRVBKRzZZU2JNS3UxaW1zaTVTUXNCR2pLLVdmUXpZMjJRc3doMnltY000b1hyT3oyODkzalRuYmlaRlk2eE4zYkRnU1VlOWd4cnBCVVVTNGFrNDNWRk0xRXkyQlU0cHVVaHM0VXpkQTUwMGQ3V3RLMVY1UVo3Qm93c2N6bXZXVldpbTVVUFpYbW44VGMzTEl3U0tubGlfS0VFcnN5R1N0Y0xKYzFRalg3Wm1aRXQ4M0RFR2ExT1JZYkx6WU9uMmxSMVFkcV9KWUQ1ZkVRQUJxT0hJQkRGR2JkTkNTeTVVUHNWeVdLQTV5YzVvRTE5aTR3NDJMWFpmWGxDRTNMV2JWWGcwX2g0dkpkXzlSU2JXYUFRcmZUWHBGOURvb0duajUxazFhWXpwN083RXhERjd3MnVuRUc4N1UyZnFvSEU0ZGdEOWNvZjRENS04Tl9YeUh4VUR1X0hTZThJSmRLWEUzcWVaUmNUWnc4MWlQaURBRjVPaXNEejhCR0szNHB1ellQWTkwdlVrQWVJTG5CWEY1SlRDSEc0R2FhaDFZWXFLSER4Y0FxazdSN0NCbnBCS19PekNIaXh0cFpFejd3SUVPZE83eTIxZFlRMUxBU1lzNjM3MkVhMHlSdV9paVVUeC1YOGxzTktjM0NSUWtuVnBNTHZRamhCUUQ4a19tX10tLT48L2c+PC9zdmc+;" vertex="1" parent="1">
            <mxGeometry x="-150" y="-1090" width="890.12" height="1550" as="geometry" />
          </mxCell>
        </UserObject>
      </root>
    </mxGraphModel>
  </diagram>
</mxfile>
